<svg width="52" height="52" viewBox="0 0 52 52" fill="none" xmlns="http://www.w3.org/2000/svg">
<path opacity="0.4" d="M26.0006 47.6667C37.9668 47.6667 47.6673 37.9662 47.6673 26C47.6673 14.0338 37.9668 4.33334 26.0006 4.33334C14.0345 4.33334 4.33398 14.0338 4.33398 26C4.33398 37.9662 14.0345 47.6667 26.0006 47.6667Z" fill="#3962D1"/>
<path d="M34.039 34.515C33.7574 34.515 33.4757 34.45 33.2157 34.2767L26.499 30.2683C24.8307 29.2717 23.5957 27.0833 23.5957 25.155V16.2717C23.5957 15.3833 24.3324 14.6467 25.2207 14.6467C26.109 14.6467 26.8457 15.3833 26.8457 16.2717V25.155C26.8457 25.935 27.4957 27.0833 28.1674 27.4733L34.884 31.4817C35.664 31.9367 35.9024 32.9333 35.4474 33.7133C35.1224 34.2333 34.5807 34.515 34.039 34.515Z" fill="#3962D1"/>
</svg>
