<svg width="52" height="52" viewBox="0 0 52 52" fill="none" xmlns="http://www.w3.org/2000/svg">
<path opacity="0.4" d="M44.6764 18.3083C42.4014 8.29833 33.6697 3.79166 25.9997 3.79166C25.9997 3.79166 25.9997 3.79166 25.9781 3.79166C18.3297 3.79166 9.57639 8.27666 7.30138 18.2867C4.76638 29.4667 11.6131 38.935 17.8097 44.8933C20.1064 47.1033 23.0531 48.2083 25.9997 48.2083C28.9464 48.2083 31.8931 47.1033 34.1681 44.8933C40.3647 38.935 47.2114 29.4883 44.6764 18.3083Z" fill="#3962D1"/>
<path d="M26.0008 29.1633C29.7701 29.1633 32.8258 26.1077 32.8258 22.3383C32.8258 18.569 29.7701 15.5133 26.0008 15.5133C22.2314 15.5133 19.1758 18.569 19.1758 22.3383C19.1758 26.1077 22.2314 29.1633 26.0008 29.1633Z" fill="#3962D1"/>
</svg>
