<svg width="32" height="32" viewBox="0 0 32 32" fill="none" xmlns="http://www.w3.org/2000/svg">
<path opacity="0.4" d="M23.9975 9.54668C23.9175 9.53334 23.8242 9.53334 23.7442 9.54668C21.9042 9.48001 20.4375 7.97334 20.4375 6.10667C20.4375 4.20001 21.9708 2.66667 23.8775 2.66667C25.7842 2.66667 27.3175 4.21334 27.3175 6.10667C27.3042 7.97334 25.8375 9.48001 23.9975 9.54668Z" stroke="white" stroke-width="1.5" stroke-linecap="round" stroke-linejoin="round"/>
<path opacity="0.4" d="M22.624 19.2533C24.4507 19.56 26.464 19.24 27.8773 18.2933C29.7573 17.04 29.7573 14.9867 27.8773 13.7333C26.4507 12.7867 24.4107 12.4667 22.584 12.7867" stroke="white" stroke-width="1.5" stroke-linecap="round" stroke-linejoin="round"/>
<path opacity="0.4" d="M7.95672 9.54668C8.03672 9.53334 8.13005 9.53334 8.21005 9.54668C10.0501 9.48001 11.5167 7.97334 11.5167 6.10667C11.5167 4.20001 9.98339 2.66667 8.07672 2.66667C6.17005 2.66667 4.63672 4.21334 4.63672 6.10667C4.65005 7.97334 6.11672 9.48001 7.95672 9.54668Z" stroke="white" stroke-width="1.5" stroke-linecap="round" stroke-linejoin="round"/>
<path opacity="0.4" d="M9.32935 19.2533C7.50268 19.56 5.48935 19.24 4.07602 18.2933C2.19602 17.04 2.19602 14.9867 4.07602 13.7333C5.50268 12.7867 7.54268 12.4667 9.36934 12.7867" stroke="white" stroke-width="1.5" stroke-linecap="round" stroke-linejoin="round"/>
<path d="M16.0014 19.5067C15.9214 19.4933 15.8281 19.4933 15.7481 19.5067C13.9081 19.44 12.4414 17.9333 12.4414 16.0667C12.4414 14.16 13.9747 12.6267 15.8814 12.6267C17.7881 12.6267 19.3214 14.1733 19.3214 16.0667C19.3081 17.9333 17.8414 19.4533 16.0014 19.5067Z" stroke="white" stroke-width="1.5" stroke-linecap="round" stroke-linejoin="round"/>
<path d="M12.1209 23.7067C10.2409 24.96 10.2409 27.0133 12.1209 28.2667C14.2543 29.6933 17.7476 29.6933 19.8809 28.2667C21.7609 27.0133 21.7609 24.96 19.8809 23.7067C17.7609 22.2933 14.2543 22.2933 12.1209 23.7067Z" stroke="white" stroke-width="1.5" stroke-linecap="round" stroke-linejoin="round"/>
</svg>
