<svg width="33" height="33" viewBox="0 0 33 33" fill="none" xmlns="http://www.w3.org/2000/svg">
<path d="M14.5771 1.83721L11.6494 1.06954C11.0185 0.898494 10.36 0.853845 9.71174 0.938165C9.06352 1.02249 8.43839 1.23411 7.87236 1.56085C7.30633 1.8876 6.81058 2.323 6.41366 2.842C6.01673 3.36099 5.72648 3.95332 5.55961 4.58488L4.81947 7.36063C7.24706 4.34224 10.7382 2.36607 14.5771 1.83721Z" fill="white" fill-opacity="0.6"/>
<path d="M1.65294 19.3108L0.931541 22.0257C0.594323 23.2951 0.775508 24.6463 1.43525 25.7822C2.09499 26.9181 3.17925 27.7456 4.44954 28.0827L7.26019 28.8317C4.26005 26.475 2.25812 23.0758 1.65294 19.3108Z" fill="white" fill-opacity="0.6"/>
<path d="M29.0845 5.69896L25.9272 4.86108C27.5203 6.08554 28.8541 7.61396 29.8512 9.35763C30.8483 11.1013 31.489 13.0255 31.7359 15.0186L32.6025 11.742C32.9355 10.4745 32.7522 9.12692 32.0929 7.99426C31.4335 6.8616 30.3517 6.03624 29.0845 5.69896Z" fill="white" fill-opacity="0.6"/>
<path d="M18.8868 31.9165L21.9035 32.731C23.1739 33.0679 24.5261 32.8869 25.6629 32.2276C26.7996 31.5684 27.6278 30.485 27.9652 29.2156L28.8177 26.0139C26.415 29.2121 22.8461 31.3334 18.8868 31.9165Z" fill="white" fill-opacity="0.6"/>
<path d="M16.7643 3.02612C14.0192 3.02612 11.3356 3.83955 9.05307 5.36354C6.77053 6.88753 4.99151 9.05364 3.94097 11.5879C2.89043 14.1222 2.61556 16.9109 3.15112 19.6013C3.68668 22.2917 5.00862 24.763 6.94976 26.7027C8.8909 28.6424 11.3641 29.9633 14.0565 30.4985C16.7489 31.0336 19.5397 30.7589 22.076 29.7092C24.6122 28.6595 26.7799 26.8818 28.3051 24.601C29.8302 22.3202 30.6443 19.6386 30.6443 16.8955C30.6443 13.2171 29.1819 9.6894 26.5789 7.08838C23.9759 4.48736 20.4455 3.02612 16.7643 3.02612ZM8.90858 9.94445C9.05699 9.1755 9.43023 8.4678 9.98111 7.91079C10.532 7.35379 11.2358 6.9725 12.0035 6.81513C12.7712 6.65776 13.5684 6.73137 14.2942 7.02667C15.0201 7.32196 15.642 7.82568 16.0814 8.47413C16.5208 9.12258 16.758 9.88665 16.7628 10.6697C16.7677 11.4528 16.5401 12.2198 16.1088 12.8737C15.6775 13.5275 15.0619 14.0389 14.3398 14.3432C13.6176 14.6475 12.8214 14.731 12.0518 14.5832C11.5405 14.485 11.0536 14.2871 10.6189 14.0008C10.1842 13.7145 9.81024 13.3454 9.51834 12.9146C9.22643 12.4838 9.02233 11.9998 8.91771 11.4901C8.81309 10.9805 8.80998 10.4553 8.90858 9.94445ZM14.6751 21.9275C14.5258 22.696 14.1519 23.4031 13.6007 23.9594C13.0494 24.5157 12.3455 24.8962 11.5779 25.0529C10.8103 25.2096 10.0134 25.1354 9.28794 24.8398C8.56249 24.5441 7.94103 24.0402 7.50207 23.3917C7.06311 22.7433 6.82636 21.9794 6.82172 21.1965C6.81708 20.4136 7.04477 19.647 7.47601 18.9933C7.90726 18.3397 8.5227 17.8285 9.2446 17.5243C9.96649 17.22 10.7624 17.1364 11.5319 17.284C12.0436 17.3822 12.531 17.5803 12.966 17.8669C13.4011 18.1535 13.7753 18.523 14.0673 18.9543C14.3592 19.3856 14.5632 19.8703 14.6675 20.3804C14.7718 20.8906 14.7744 21.4163 14.6751 21.9275ZM16.3568 18.7211C16.0152 18.655 15.7009 18.4894 15.4534 18.2451C15.2059 18.0008 15.0364 17.6887 14.9662 17.3482C14.896 17.0077 14.9283 16.654 15.059 16.3319C15.1897 16.0097 15.413 15.7334 15.7006 15.5379C15.9883 15.3424 16.3275 15.2363 16.6753 15.2332C17.0232 15.23 17.3643 15.3299 17.6554 15.5202C17.9466 15.7104 18.1748 15.9826 18.3114 16.3024C18.4479 16.6221 18.4866 16.9751 18.4226 17.3168C18.3799 17.5449 18.2925 17.7623 18.1654 17.9565C18.0383 18.1507 17.874 18.3178 17.682 18.4483C17.49 18.5788 17.2741 18.6701 17.0467 18.7169C16.8192 18.7637 16.5848 18.7651 16.3568 18.7211ZM24.6248 23.8373C24.477 24.6067 24.1042 25.3151 23.5534 25.8727C23.0026 26.4304 22.2986 26.8122 21.5306 26.9699C20.7625 27.1277 19.9649 27.0542 19.2387 26.7588C18.5124 26.4634 17.8902 25.9594 17.4507 25.3105C17.0113 24.6616 16.7743 23.8971 16.7698 23.1136C16.7654 22.3301 16.9936 21.5629 17.4256 20.909C17.8577 20.2552 18.4741 19.7441 19.1969 19.4405C19.9197 19.1368 20.7164 19.0542 21.4862 19.2032C22.517 19.4027 23.4264 20.0027 24.0148 20.8715C24.6033 21.7403 24.8226 22.807 24.6248 23.8373ZM22.0015 16.4977C21.2316 16.3502 20.5227 15.9779 19.9646 15.4278C19.4065 14.8777 19.0241 14.1746 18.866 13.4074C18.7078 12.6401 18.7809 11.8433 19.0761 11.1176C19.3712 10.3918 19.8751 9.76991 20.524 9.33041C21.173 8.89091 21.9378 8.6536 22.7217 8.6485C23.5056 8.6434 24.2734 8.87074 24.928 9.30175C25.5826 9.73277 26.0946 10.3481 26.3992 11.0699C26.7037 11.7917 26.7872 12.5876 26.6391 13.3568C26.5413 13.8676 26.3438 14.3542 26.0578 14.7888C25.7718 15.2233 25.403 15.5973 24.9723 15.8894C24.5417 16.1815 24.0577 16.386 23.5479 16.4912C23.0382 16.5963 22.5127 16.6001 22.0015 16.5023V16.4977Z" fill="#ED145B" fill-opacity="0.6"/>
</svg>
