<svg width="32" height="33" viewBox="0 0 32 33" fill="none" xmlns="http://www.w3.org/2000/svg">
<path d="M31.9104 10.3087C31.8336 8.60497 31.5583 7.43923 31.1678 6.42082C30.7581 5.37038 30.214 4.47366 29.3243 3.58975C28.4345 2.70585 27.5447 2.1486 26.4949 1.74508C25.4771 1.34796 24.3121 1.07894 22.6093 1.00208C20.9002 0.925221 20.3561 0.906006 16.016 0.906006C11.6695 0.906006 11.1254 0.925221 9.42268 1.00208C7.71994 1.07894 6.5549 1.35436 5.5371 1.74508C4.48089 2.15501 3.58471 2.69944 2.70133 3.58975C1.81796 4.48006 1.26104 5.37038 0.857763 6.42082C0.467285 7.43923 0.19203 8.60497 0.115215 10.3087C0.0383994 12.0189 0.0191956 12.5633 0.0191956 16.906C0.0191956 21.2551 0.0383994 21.7995 0.115215 23.5033C0.19203 25.207 0.467285 26.3728 0.857763 27.3912C1.26745 28.4416 1.81155 29.3384 2.70133 30.2223C3.58471 31.1126 4.48089 31.6634 5.5307 32.0669C6.5485 32.4641 7.71353 32.7331 9.41628 32.8099C11.1254 32.8868 11.6695 32.906 16.0096 32.906C20.3561 32.906 20.9002 32.8868 22.6029 32.8099C24.3057 32.7331 25.4707 32.4576 26.4885 32.0669C27.5383 31.657 28.4345 31.1126 29.3179 30.2223C30.2012 29.3319 30.7581 28.4416 31.1614 27.3912C31.5583 26.3728 31.8272 25.207 31.904 23.5033C31.9808 21.7931 32 21.2487 32 16.906C32 12.5633 31.9872 12.0125 31.9104 10.3087ZM29.0362 23.3752C28.9658 24.938 28.7033 25.7899 28.4857 26.3472C28.1976 27.0902 27.8456 27.6282 27.2822 28.1918C26.7189 28.7555 26.1876 29.095 25.4387 29.396C24.8754 29.6138 24.024 29.8764 22.4685 29.9468C20.7849 30.0237 20.2792 30.0429 16.0032 30.0429C11.7271 30.0429 11.2214 30.0237 9.5379 29.9468C7.97599 29.8764 7.12462 29.6138 6.56771 29.396C5.82516 29.1078 5.28745 28.7555 4.72414 28.1918C4.16082 27.6282 3.82156 27.0966 3.5207 26.3472C3.30305 25.7835 3.0406 24.9316 2.97019 23.3752C2.89337 21.6906 2.87417 21.1846 2.87417 16.906C2.87417 12.6274 2.89337 12.1214 2.97019 10.4368C3.0406 8.87398 3.30305 8.0221 3.5207 7.46485C3.80875 6.72186 4.16082 6.18383 4.72414 5.62018C5.28745 5.05653 5.81876 4.71705 6.56771 4.41601C7.13102 4.19824 7.98239 3.93563 9.5379 3.86517C11.2214 3.78831 11.7271 3.7691 16.0032 3.7691C20.2792 3.7691 20.7849 3.78831 22.4685 3.86517C24.0304 3.93563 24.8818 4.19824 25.4387 4.41601C26.1812 4.70424 26.7189 5.05653 27.2822 5.62018C27.8456 6.18383 28.1848 6.71545 28.4857 7.46485C28.7033 8.0285 28.9658 8.88039 29.0362 10.4368C29.113 12.1214 29.1322 12.6274 29.1322 16.906C29.1322 21.1846 29.1066 21.6906 29.0362 23.3752Z" fill="#E12F6A" fill-opacity="0.6"/>
<path d="M16.0032 8.68188C11.4583 8.68188 7.784 12.3648 7.784 16.9061C7.784 21.4537 11.4647 25.1302 16.0032 25.1302C20.5417 25.1302 24.2225 21.4409 24.2225 16.9061C24.2225 12.3584 20.5481 8.68188 16.0032 8.68188ZM16.0032 22.2415C13.0587 22.2415 10.671 19.8524 10.671 16.9061C10.671 13.9597 13.0587 11.5706 16.0032 11.5706C18.9478 11.5706 21.3355 13.9597 21.3355 16.9061C21.3355 19.8524 18.9478 22.2415 16.0032 22.2415Z" fill="#E12F6A" fill-opacity="0.6"/>
<path d="M24.5425 10.2831C25.6031 10.2831 26.4629 9.42284 26.4629 8.3616C26.4629 7.30036 25.6031 6.44006 24.5425 6.44006C23.4819 6.44006 22.6221 7.30036 22.6221 8.3616C22.6221 9.42284 23.4819 10.2831 24.5425 10.2831Z" fill="#E12F6A" fill-opacity="0.6"/>
<path d="M0 16.906C0 21.2551 0.0192038 21.7995 0.0960192 23.5033C0.172835 25.207 0.44809 26.3728 0.838568 27.3912C1.24825 28.4416 1.79236 29.3384 2.68214 30.2223C3.56551 31.1062 4.46169 31.6634 5.5115 32.0669C6.52931 32.4641 7.69434 32.7331 9.39708 32.8099C11.1062 32.8868 11.6503 32.906 15.9904 32.906C20.3369 32.906 20.881 32.8868 22.5837 32.8099C24.2865 32.7331 25.4515 32.4576 26.4693 32.0669C27.5191 31.657 28.4153 31.1126 29.2987 30.2223C30.182 29.3384 30.7389 28.4416 31.1422 27.3912C31.5391 26.3728 31.808 25.207 31.8848 23.5033C31.9616 21.7931 31.9808 21.2487 31.9808 16.906C31.9808 12.5569 31.9616 12.0125 31.8848 10.3087C31.808 8.60497 31.5327 7.43923 31.1422 6.42082C30.7325 5.37038 30.1884 4.47366 29.2987 3.58975C28.4217 2.69944 27.5255 2.1486 26.4757 1.74508C25.4579 1.34796 24.2929 1.07894 22.5901 1.00208C20.881 0.925221 20.3369 0.906006 15.9968 0.906006C11.6503 0.906006 11.1062 0.925221 9.40348 1.00208C7.70074 1.07894 6.53571 1.35436 5.5179 1.74508C4.46809 2.15501 3.57191 2.69944 2.68854 3.58975C1.80516 4.48006 1.24825 5.37038 0.844969 6.42082C0.44809 7.43923 0.172835 8.60497 0.0960192 10.3087C0.0192038 12.0125 0 12.5569 0 16.906ZM2.88698 16.906C2.88698 12.6338 2.90618 12.1214 2.983 10.4368C3.05341 8.87398 3.31586 8.0221 3.53351 7.46485C3.82156 6.72186 4.17363 6.18383 4.73695 5.62018C5.30026 5.05653 5.83157 4.71705 6.58052 4.41601C7.14383 4.19824 7.9952 3.93563 9.55071 3.86517C11.2342 3.78831 11.7399 3.7691 16.016 3.7691C20.2921 3.7691 20.7978 3.78831 22.4813 3.86517C24.0432 3.93563 24.8946 4.19824 25.4515 4.41601C26.194 4.70424 26.7317 5.05653 27.2951 5.62018C27.8584 6.18383 28.1976 6.71545 28.4985 7.46485C28.7161 8.0285 28.9786 8.88039 29.049 10.4368C29.1258 12.1214 29.145 12.6274 29.145 16.906C29.145 21.1846 29.1258 21.6906 29.049 23.3752C28.9786 24.938 28.7161 25.7899 28.4985 26.3472C28.2104 27.0902 27.8584 27.6282 27.2951 28.1918C26.7317 28.7555 26.2004 29.095 25.4515 29.396C24.8882 29.6138 24.0368 29.8764 22.4813 29.9468C20.7978 30.0237 20.2921 30.0429 16.016 30.0429C11.7399 30.0429 11.2342 30.0237 9.55071 29.9468C7.9888 29.8764 7.13743 29.6138 6.58052 29.396C5.83797 29.1078 5.30026 28.7555 4.73695 28.1918C4.17363 27.6282 3.83437 27.0966 3.53351 26.3472C3.31586 25.7835 3.05341 24.9316 2.983 23.3752C2.89978 21.6906 2.88698 21.1782 2.88698 16.906Z" fill="#E12F6A" fill-opacity="0.6"/>
</svg>
