<svg width="32" height="33" viewBox="0 0 32 33" fill="none" xmlns="http://www.w3.org/2000/svg">
<g clip-path="url(#clip0_744_2293)">
<path d="M0 5.17493C0 4.1453 0.360371 3.29588 1.08108 2.62666C1.80179 1.95741 2.73875 1.6228 3.89189 1.6228C5.02446 1.6228 5.94079 1.95225 6.64093 2.61122C7.36164 3.29076 7.72201 4.17619 7.72201 5.26759C7.72201 6.25601 7.37195 7.07967 6.67181 7.73863C5.9511 8.41817 5.00386 8.75794 3.83012 8.75794H3.79923C2.66666 8.75794 1.75033 8.41817 1.05019 7.73863C0.350054 7.0591 0 6.20452 0 5.17493ZM0.401544 32.202V11.5687H7.25869V32.202H0.401544ZM11.0579 32.202H17.9151V20.6807C17.9151 19.96 17.9974 19.404 18.1622 19.0128C18.4504 18.3126 18.888 17.7206 19.4749 17.2367C20.0618 16.7528 20.7979 16.5108 21.6834 16.5108C23.9897 16.5108 25.1429 18.0655 25.1429 21.1749V32.202H32V20.3718C32 17.3242 31.2793 15.0128 29.8378 13.4375C28.3964 11.8622 26.4916 11.0745 24.1236 11.0745C21.4672 11.0745 19.3977 12.2174 17.9151 14.5031V14.5649H17.8842L17.9151 14.5031V11.5687H11.0579C11.0991 12.2277 11.1197 14.2766 11.1197 17.7155C11.1197 21.1543 11.0991 25.9831 11.0579 32.202Z" fill="#0A66C2" fill-opacity="0.6"/>
</g>
<defs>
<clipPath id="clip0_744_2293">
<rect width="32" height="32" fill="white" transform="translate(0 0.906006)"/>
</clipPath>
</defs>
</svg>
