<svg width="32" height="33" viewBox="0 0 32 33" fill="none" xmlns="http://www.w3.org/2000/svg">
<g clip-path="url(#clip0_56_689)">
<g filter="url(#filter0_d_56_689)">
<path fill-rule="evenodd" clip-rule="evenodd" d="M2.71607 15.9638C10.9847 12.3613 16.4984 9.98626 19.2572 8.83878C27.1342 5.56248 28.771 4.99336 29.8378 4.97457C30.0724 4.97043 30.597 5.02858 30.9369 5.30433C31.2238 5.53717 31.3028 5.8517 31.3406 6.07246C31.3783 6.29322 31.4254 6.79611 31.388 7.18905C30.9611 11.674 29.1141 22.5579 28.1745 27.5812C27.7769 29.7067 26.994 30.4194 26.2361 30.4892C24.5889 30.6407 23.3382 29.4006 21.7428 28.3549C19.2465 26.7184 17.8361 25.6998 15.413 24.1029C12.6126 22.2575 14.428 21.2432 16.0239 19.5856C16.4416 19.1518 23.6989 12.5507 23.8394 11.9519C23.8569 11.877 23.8732 11.5978 23.7074 11.4504C23.5416 11.303 23.2968 11.3534 23.1201 11.3935C22.8698 11.4503 18.8817 14.0863 11.1561 19.3013C10.0241 20.0786 8.99879 20.4573 8.08014 20.4375C7.0674 20.4156 5.1193 19.8649 3.67109 19.3941C1.8948 18.8167 0.48304 18.5114 0.605973 17.5308C0.670004 17.0201 1.37337 16.4977 2.71607 15.9638Z" fill="url(#paint0_linear_56_689)"/>
</g>
</g>
<defs>
<filter id="filter0_d_56_689" x="-3.40149" y="4.97437" width="38.8032" height="33.5275" filterUnits="userSpaceOnUse" color-interpolation-filters="sRGB">
<feFlood flood-opacity="0" result="BackgroundImageFix"/>
<feColorMatrix in="SourceAlpha" type="matrix" values="0 0 0 0 0 0 0 0 0 0 0 0 0 0 0 0 0 0 127 0" result="hardAlpha"/>
<feOffset dy="4"/>
<feGaussianBlur stdDeviation="2"/>
<feComposite in2="hardAlpha" operator="out"/>
<feColorMatrix type="matrix" values="0 0 0 0 0 0 0 0 0 0 0 0 0 0 0 0 0 0 0.25 0"/>
<feBlend mode="normal" in2="BackgroundImageFix" result="effect1_dropShadow_56_689"/>
<feBlend mode="normal" in="SourceGraphic" in2="effect1_dropShadow_56_689" result="shape"/>
</filter>
<linearGradient id="paint0_linear_56_689" x1="16.0001" y1="4.97437" x2="16.0001" y2="30.3125" gradientUnits="userSpaceOnUse">
<stop stop-color="#2AABEE"/>
<stop offset="1" stop-color="#229ED9"/>
</linearGradient>
<clipPath id="clip0_56_689">
<rect y="0.906006" width="32" height="32" rx="6" fill="white"/>
</clipPath>
</defs>
</svg>
