<?xml version="1.0" encoding="utf-8"?>
<!-- Generator: Adobe Illustrator 19.0.1, SVG Export Plug-In . SVG Version: 6.00 Build 0)  -->
<svg version="1.1" id="Layer_1" xmlns="http://www.w3.org/2000/svg" xmlns:xlink="http://www.w3.org/1999/xlink" x="0px" y="0px"
	 viewBox="0 0 28.7 25.2" style="enable-background:new 0 0 28.7 25.2;" xml:space="preserve">
<style type="text/css">
	.st0{fill:#29547B;}
	.st1{fill:none;}
</style>
<path class="st0" d="M5.6,17.6c-0.4,0-0.9-0.1-1.4-0.4c0.1-0.1,0.4-0.3,0.9-0.6c0.7-0.3,1.2-0.6,1.5-0.9c0.1,0.6,0.1,1,0,1.3
	C6.5,17.4,6.2,17.6,5.6,17.6 M4,21.4c-1.1,0.4-1.7,0.6-1.8,0.7c0.1,0,0.3,0,0.5,0c0.6,0,1.2-0.1,1.8-0.4c0.4-0.2,0.8-0.4,1.1-0.7
	c0.4-0.3,0.6-0.7,0.6-1C5.7,20.6,5,21,4,21.4 M13.2,23.9c-0.3-0.2-0.6-0.3-0.9-0.3c-0.1,0.1-0.2,0.3-0.4,0.6
	c-0.1,0.2-0.2,0.4-0.1,0.4c0.5,0.3,0.9,0.5,1.2,0.7c0.4-0.6,0.7-1,0.7-1C13.7,24.2,13.6,24.1,13.2,23.9 M15.4,23.7
	c-0.3-0.2-0.6-0.3-0.9-0.3c-0.3,0.4-0.5,0.7-0.5,0.9c0,0,0,0,0,0c0.5,0.3,0.9,0.6,1.2,0.7c0.4-0.6,0.7-0.9,0.7-1
	C15.9,24,15.7,23.9,15.4,23.7 M5.4,6.4c-0.9-1-2.1-1.9-3.7-2.6c0,0,0,0-0.1,0c-0.2,0-0.3,0.4-0.3,1.2c0,0.8,0.3,1.4,0.9,1.6
	c0.5,0.2,1.1,0.2,1.9,0.1c0.6,0.4,1.2,1,1.6,1.8c0.4,0.7,0.6,1.3,0.6,1.7c0,0.3,0,0.6-0.1,0.9c-0.1,0.3-0.1,0.5-0.1,0.5c0,0,0,0,0,0
	c0,0,0,0,0.1-0.1c0.3-0.6,0.5-1.2,0.5-1.9C6.8,8.5,6.3,7.4,5.4,6.4 M16.2,15.9c0-0.2-0.1-0.2-0.3-0.2c-0.1,0-0.3,0-0.5,0.1
	c-0.9,0.2-1.4,0.6-1.6,1.2c0,0.2-0.1,0.3-0.1,0.3c0,0,0.1,0,0.3-0.1c0.6-0.3,1.1-0.4,1.4-0.4c0.1,0,0.1,0,0.1,0
	c0,0.3-0.6,0.7-1.7,1.2c-0.2,0.1-0.2,0.2-0.2,0.2c0,0.1,0.1,0.1,0.2,0.1c0.1,0,0.1,0,0.2,0c0.9-0.3,1.5-0.6,1.6-1
	c0.3-0.6,0.5-1,0.6-1.3C16.2,16,16.2,16,16.2,15.9 M28.7,17.4c-0.8,1-1.5,1.5-2.1,1.5c-0.4,0-0.7-0.2-1.1-0.5
	c-0.5-0.4-0.8-0.9-0.9-1.5c0.1-0.3,0.3-0.5,0.6-0.8c0.4-0.3,0.8-0.4,1.3-0.4c0.3,0,0.7,0.2,1.2,0.5c0.1,0,0.1,0.1,0.2,0.1
	c0,0,0.1,0,0.1,0c0,0,0-0.1,0-0.3c-0.1-0.3-0.2-0.6-0.5-0.9c-0.3-0.2-0.5-0.3-0.8-0.3c-0.7,0-1.3,0.4-1.9,1
	c-0.5,0.6-0.7,1.2-0.7,1.8c0,0.5,0.2,1,0.6,1.5c-0.5,0-0.9-0.2-1.2-0.6c-0.4-0.5-0.6-1.2-0.9-2.2c-0.1-0.3-0.2-1.1-0.4-2.4
	c-0.3-2-0.5-3.4-0.6-4.3c0,0,0-0.1,0-0.1c-0.1,0-0.3,0.3-0.5,1l0.7,7c0.1,1.2,0,1.8-0.3,1.8c-0.3,0-0.6-0.1-1-0.3
	c-0.4-0.2-0.6-0.3-0.7-0.3c-0.1,0-0.2,0.1-0.3,0.2c-0.3,0.4-1.1,0.7-2.2,1c-1.2,0.3-2.7,0.4-4.4,0.4c-3.2,0-4.9-1.1-5.3-3.4
	c0-0.1-0.1-0.8-0.1-2c0-0.8-0.2-1.3-0.4-1.5c-0.2,0.5-0.3,0.9-0.3,1.1c0.1,0.4,0.1,0.6,0.1,0.5c0,0.1-0.1,0.2-0.3,0.3
	c-0.4,0.2-0.9,0.5-1.6,0.7c-0.5,0.2-0.7,0.3-0.8,0.4c-0.3,0.4-0.4,0.7-0.4,0.9c0,0.1,0.1,0.2,0.3,0.3c0,0,0.3,0.1,0.9,0.3
	c0.3,0.1,0.5,0.1,0.7,0.1c0.5,0,1-0.4,1.6-1.2c0.1,1.3,0.4,2.3,0.9,2.9c0.8,1,2.2,1.6,4.3,1.6c2.4,0,4.3-0.3,5.7-0.8
	c0.5-0.2,0.9-0.4,1.2-0.6c0.2-0.1,0.3-0.3,0.4-0.4c0,0,0,0,0,0c0.1,0,0.3,0.1,0.6,0.4c0.4,0.2,0.6,0.4,0.8,0.4
	c0.6,0,1.1-0.7,1.5-2.2c0.2,0.6,0.5,1.1,0.7,1.3c0.4,0.4,0.8,0.6,1.4,0.6c0.2,0,0.4,0,0.6-0.1c1.6-0.3,2.8-1,3.6-2.2
	C28.7,17.9,28.7,17.7,28.7,17.4 M19.6,8.6c-0.3-1.2-0.5-2-0.5-2.4c0.1-0.3,0.2-0.6,0.3-0.9c0-0.2-0.1-0.3-0.3-0.4
	c-0.2-0.1-0.4-0.3-0.4-0.5c0-0.7,0-1.1-0.1-1.1c0,0-0.1,0.1-0.1,0.2c-0.2,0.5-0.2,1-0.2,1.4c0,0.2,0.1,0.4,0.2,0.6
	c0.1,0.2,0.2,0.4,0.2,0.4c0,0.4,0.1,1.2,0.4,2.2c0.3,1.3,0.5,2.1,0.6,2.4c0,0.2,0.1,0.4,0.1,0.5c0,0.3-0.2,0.5-0.5,0.5
	c-0.3,0-0.5-0.1-0.8-0.2c-0.2-0.1-0.3-0.2-0.5-0.3c-0.2,0.3-0.3,0.6-0.3,1c0,0.1-0.2,0.2-0.7,0.2c-0.2,0-0.4,0-0.5-0.1
	c-0.1-0.1-0.1-0.3-0.2-0.7c0-0.1,0-0.2-0.1-0.2c0,0-0.1,0.1-0.2,0.4c-0.1,0.3-0.2,0.5-0.2,0.5c-0.1,0.2-0.4,0.4-0.9,0.5
	c-0.5,0.2-0.9,0.3-1.2,0.3c-0.2,0-0.2-0.3-0.1-0.8c0-0.1,0-0.2,0-0.2c0-0.1-0.2,0.1-0.5,0.5c-0.3,0.4-1,0.6-2.2,0.6
	c-0.9,0-1.4-0.6-1.6-1.7c-0.1-1.3-0.3-2.6-0.4-3.8c-0.2-2-0.6-3.3-1-4C7.7,3.9,7.6,4.4,7.6,4.9c0,0.1,0,0.4,0.1,1.1
	c0.1,0.6,0.1,1.2,0.1,1.7c0,1,0,1.7-0.1,2.1c-0.1,0.6-0.5,1.2-0.9,1.8c-0.7,0.9-2.2,1.8-4.6,2.8C0.7,15,0,15.3,0,15.4c0,0,0,0,0.1,0
	c0.1,0,0.6-0.1,1.5-0.2c1.1-0.2,1.9-0.4,2.6-0.7c0.7-0.3,1.4-0.8,2.2-1.6C7,12.3,7.6,11.3,8,10.1c0.3-0.9,0.4-1.7,0.4-2.3
	C8.7,10.5,8.9,12,9,12.5c0.2,1.1,0.9,1.6,2,1.6c0.5,0,1.1-0.2,1.7-0.5c0.1,0.2,0.3,0.3,0.5,0.3c1.2,0,2.1-0.3,2.9-1
	c0.2,0.2,0.4,0.3,0.7,0.3c0.3,0,0.5-0.1,0.7-0.3c0,0,0.2-0.2,0.5-0.6c0,0,0,0,0,0c0,0,0.1,0,0.3,0.1c0.2,0.1,0.4,0.1,0.6,0.1
	c0.2,0,0.5-0.2,0.7-0.7c0.2-0.4,0.3-0.8,0.3-1.1C19.9,10.1,19.8,9.4,19.6,8.6 M4.6,0C4.5,0.3,4.3,0.5,4.2,0.8c1,1,1.5,1.9,1.5,2.5
	c0,0.3,0,0.6-0.1,0.9C5.4,4.6,5.4,4.8,5.4,4.8c0,0,0,0,0,0c0,0,0.1-0.1,0.1-0.2C5.8,4.1,6,3.5,6,2.9C6,1.9,5.5,1,4.6,0 M15.7,2.6
	c-1-0.7-1.7-1.1-1.8-1.1c-0.5,0-1,0.5-1.4,1.6c-0.1,0.2-0.1,0.3,0,0.3c0,0,0.1,0,0.1-0.1c0.1-0.2,0.2-0.4,0.4-0.5
	c0.1-0.1,0.3-0.2,0.6-0.2c0.3,0,0.5,0.1,0.7,0.4c-0.5,0.3-0.9,0.4-1.2,0.5C12.6,3.6,12.3,4,12,4.5c-0.2,0.4-0.3,0.7-0.3,1
	c0,0.4,0.2,1.2,0.5,2.3c0.3,1.1,0.5,2,0.5,2.7c0,0.3,0,0.6-0.1,0.8c0,0.3-0.1,0.5-0.1,0.6c0,0.2,0,0.3,0,0.3c0,0.1,0,0,0.1,0
	c0.1-0.1,0.2-0.4,0.3-0.9c0.1-0.4,0.2-0.9,0.2-1.4c0-0.8-0.2-1.8-0.5-2.9c-0.3-1.1-0.5-1.6-0.5-1.6c0-0.4,0.2-0.7,0.5-0.9
	c0.1-0.1,0.6-0.2,1.3-0.4c0.7-0.2,1.2-0.3,1.6-0.3c0,0,0.1-0.2,0.3-0.6C15.9,2.9,15.9,2.7,15.7,2.6 M16.8,8.1
	c0.2-0.3,0.3-0.6,0.3-0.9c0-0.3-0.1-0.4-0.2-0.4c-0.1,0-0.2,0.1-0.2,0.3c-0.1,0.4-0.2,0.7-0.4,0.7c-0.2,0-0.3-0.1-0.3-0.3
	c0,0,0-0.1,0-0.2c0-0.1,0-0.2,0-0.2c0-0.1,0-0.1-0.1-0.1c-0.1,0-0.2,0.1-0.3,0.4C15.6,7.8,15.5,8,15.3,8c-0.1,0-0.1,0-0.1,0
	C15,8,15,7.9,15,7.8c0-0.1,0-0.2,0.1-0.4c0.1-0.2,0.1-0.3,0.1-0.3c0,0,0-0.1,0-0.1c-0.1,0-0.2,0.2-0.4,0.5c-0.2,0.3-0.3,0.6-0.3,0.8
	c0,0.4,0.2,0.6,0.5,0.6c0.3,0,0.5-0.1,0.8-0.3c0.2,0.1,0.3,0.1,0.5,0.1C16.4,8.6,16.6,8.5,16.8,8.1 M24,8c-0.4-2.9-0.7-4.8-0.8-5.6
	c-0.1,0-0.2,0.2-0.4,0.6c-0.1,0.3-0.2,0.5-0.2,0.7c0,0.5,0.5,3.5,1.5,9.1c0,0.1,0.1,0.1,0.2,0.2c0.2-0.3,0.3-0.6,0.3-0.8
	C24.6,11.8,24.4,10.4,24,8"/>
<rect class="st1" width="28.7" height="25.2"/>
</svg>
