<svg width="36" height="36" viewBox="0 0 36 36" fill="none" xmlns="http://www.w3.org/2000/svg">
<path opacity="0.4" d="M5.98481 21.9899L3.70482 19.71C2.77482 18.78 2.77482 17.25 3.70482 16.32L5.98481 14.0399C6.37481 13.6499 6.68981 12.8849 6.68981 12.3449V9.11999C6.68981 7.79999 7.76982 6.71993 9.08982 6.71993H12.3148C12.8548 6.71993 13.6198 6.40497 14.0098 6.01497L16.2898 3.73495C17.2198 2.80495 18.7498 2.80495 19.6798 3.73495L21.9598 6.01497C22.3498 6.40497 23.1148 6.71993 23.6548 6.71993H26.8798C28.1998 6.71993 29.2798 7.79999 29.2798 9.11999V12.3449C29.2798 12.8849 29.5948 13.6499 29.9848 14.0399L32.2648 16.32C33.1948 17.25 33.1948 18.78 32.2648 19.71L29.9848 21.9899C29.5948 22.3799 29.2798 23.1449 29.2798 23.6849V26.91C29.2798 28.23 28.1998 29.3099 26.8798 29.3099H23.6548C23.1148 29.3099 22.3498 29.625 21.9598 30.015L19.6798 32.295C18.7498 33.225 17.2198 33.225 16.2898 32.295L14.0098 30.015C13.6198 29.625 12.8548 29.3099 12.3148 29.3099H9.08982C7.76982 29.3099 6.68981 28.23 6.68981 26.91V23.6849C6.68981 23.1299 6.37481 22.3649 5.98481 21.9899Z" fill="#FF9100"/>
<path d="M22.4999 24.0001C21.6599 24.0001 20.9849 23.3251 20.9849 22.5001C20.9849 21.6751 21.6599 21.0001 22.4849 21.0001C23.3099 21.0001 23.9849 21.6751 23.9849 22.5001C23.9849 23.3251 23.3249 24.0001 22.4999 24.0001Z" fill="#FF9100"/>
<path d="M13.515 15.0001C12.675 15.0001 12 14.3251 12 13.5001C12 12.6751 12.675 12.0001 13.5 12.0001C14.325 12.0001 15 12.6751 15 13.5001C15 14.3251 14.34 15.0001 13.515 15.0001Z" fill="#FF9100"/>
<path d="M13.5002 23.6249C13.2152 23.6249 12.9302 23.5199 12.7052 23.2949C12.2702 22.8599 12.2702 22.1398 12.7052 21.7048L21.7052 12.7048C22.1402 12.2698 22.8602 12.2698 23.2952 12.7048C23.7302 13.1398 23.7302 13.8599 23.2952 14.2949L14.2952 23.2949C14.0702 23.5199 13.7852 23.6249 13.5002 23.6249Z" fill="#FF9100"/>
</svg>
