<svg width="52" height="52" viewBox="0 0 52 52" fill="none" xmlns="http://www.w3.org/2000/svg">
<path d="M45.6952 15.1234C43.8536 13.0867 40.7769 12.0684 36.3136 12.0684H35.7936V11.9817C35.7936 8.34169 35.7936 3.83502 27.6469 3.83502H24.3536C16.2069 3.83502 16.2069 8.36336 16.2069 11.9817V12.09H15.6869C11.2019 12.09 8.14691 13.1084 6.30524 15.145C4.16024 17.5284 4.22524 20.735 4.44191 22.9234L4.46358 23.075L4.68024 25.35C4.70191 25.3717 4.74524 25.415 4.78858 25.4367C5.50358 25.9134 6.24024 26.39 7.02024 26.8234C7.32358 27.0184 7.64858 27.1917 7.97358 27.365C11.6786 29.4017 15.7519 30.7667 19.8902 31.4384C20.0852 33.475 20.9736 35.8584 25.7186 35.8584C30.4636 35.8584 31.3952 33.4967 31.5469 31.395C35.9669 30.68 40.2352 29.1417 44.0919 26.8884C44.2219 26.8234 44.3086 26.7584 44.4169 26.6934C45.4136 26.13 46.3452 25.5234 47.2552 24.8517C47.2986 24.83 47.3419 24.7867 47.3636 24.7434L47.4502 23.9634L47.5586 22.945C47.5802 22.815 47.5802 22.7067 47.6019 22.555C47.7752 20.3667 47.7319 17.3767 45.6952 15.1234ZM28.3619 29.965C28.3619 32.2617 28.3619 32.6084 25.6969 32.6084C23.0319 32.6084 23.0319 32.1967 23.0319 29.9867V27.2567H28.3619V29.965ZM19.3052 12.0684V11.9817C19.3052 8.29836 19.3052 6.93336 24.3536 6.93336H27.6469C32.6952 6.93336 32.6952 8.32002 32.6952 11.9817V12.09H19.3052V12.0684Z" fill="#3962D1"/>
<path opacity="0.4" d="M44.4168 26.65C44.3085 26.715 44.2002 26.78 44.0918 26.845C40.2352 29.0983 35.9668 30.615 31.5468 31.3517C31.3735 33.4317 30.4635 35.815 25.7185 35.815C20.9735 35.815 20.0635 33.4533 19.8902 31.395C15.7518 30.745 11.6785 29.38 7.97351 27.3217C7.64851 27.1483 7.32351 26.975 7.02018 26.78C6.24018 26.3467 5.50351 25.87 4.78851 25.3933C4.74518 25.3717 4.70184 25.3283 4.68018 25.3067L6.00184 39.4117C6.45684 43.7233 8.23351 48.165 17.7668 48.165H34.2768C43.8102 48.165 45.5868 43.7233 46.0418 39.39L47.4068 24.7C47.3852 24.7433 47.3418 24.7867 47.2985 24.8083C46.3668 25.48 45.4135 26.1083 44.4168 26.65Z" fill="#3962D1"/>
</svg>
