<svg width="52" height="52" viewBox="0 0 52 52" fill="none" xmlns="http://www.w3.org/2000/svg">
<path opacity="0.4" d="M41.1668 19.5C41.1668 22.6416 40.2352 25.5233 38.6318 27.9283C36.2918 31.395 32.5868 33.8433 28.2752 34.4717C27.5385 34.6017 26.7802 34.6666 26.0002 34.6666C25.2202 34.6666 24.4618 34.6017 23.7252 34.4717C19.4135 33.8433 15.7085 31.395 13.3685 27.9283C11.7652 25.5233 10.8335 22.6416 10.8335 19.5C10.8335 11.115 17.6152 4.33331 26.0002 4.33331C34.3852 4.33331 41.1668 11.115 41.1668 19.5Z" fill="#FF9100"/>
<path d="M46.0415 40.0184L42.4665 40.8633C41.6648 41.0583 41.0365 41.665 40.8632 42.4667L40.1048 45.6517C39.6932 47.385 37.4832 47.9051 36.3348 46.5401L25.9998 34.6667L15.6648 46.5617C14.5165 47.9267 12.3065 47.4067 11.8948 45.6733L11.1365 42.4883C10.9415 41.6867 10.3132 41.0583 9.53318 40.885L5.95818 40.04C4.31151 39.65 3.72651 37.5917 4.91818 36.4L13.3682 27.95C15.7082 31.4167 19.4132 33.8651 23.7248 34.4934C24.4615 34.6234 25.2198 34.6884 25.9998 34.6884C26.7798 34.6884 27.5382 34.6234 28.2748 34.4934C32.5865 33.8651 36.2915 31.4167 38.6315 27.95L47.0815 36.4C48.2732 37.57 47.6882 39.6284 46.0415 40.0184Z" fill="#FF9100"/>
<path d="M27.2568 12.9567L28.5351 15.5133C28.7084 15.86 29.1634 16.2067 29.5751 16.2717L31.8934 16.6617C33.3668 16.9 33.7134 17.9833 32.6518 19.045L30.8534 20.8433C30.5501 21.1467 30.3768 21.7317 30.4851 22.165L31.0051 24.3967C31.4168 26.1517 30.4851 26.845 28.9251 25.9133L26.7584 24.635C26.3684 24.3967 25.7184 24.3967 25.3284 24.635L23.1618 25.9133C21.6018 26.8233 20.6701 26.1517 21.0818 24.3967L21.6018 22.165C21.6884 21.7534 21.5368 21.1467 21.2334 20.8433L19.4351 19.045C18.3734 17.9833 18.7201 16.9217 20.1934 16.6617L22.5118 16.2717C22.9018 16.2067 23.3568 15.86 23.5301 15.5133L24.8084 12.9567C25.4368 11.57 26.5634 11.57 27.2568 12.9567Z" fill="#FF9100"/>
</svg>
