<svg width="24" height="24" viewBox="0 0 24 24" fill="none" xmlns="http://www.w3.org/2000/svg">
<path d="M13.7289 3.50942L15.4889 7.02942C15.7289 7.51942 16.3689 7.98942 16.9089 8.07942L20.0989 8.60942C22.1389 8.94942 22.6189 10.4294 21.1489 11.8894L18.6689 14.3694C18.2489 14.7894 18.0189 15.5994 18.1489 16.1794L18.8589 19.2494C19.4189 21.6794 18.1289 22.6194 15.9789 21.3494L12.9889 19.5794C12.4489 19.2594 11.5589 19.2594 11.0089 19.5794L8.01893 21.3494C5.87893 22.6194 4.57893 21.6694 5.13893 19.2494L5.84893 16.1794C5.97893 15.5994 5.74893 14.7894 5.32893 14.3694L2.84893 11.8894C1.38893 10.4294 1.85893 8.94942 3.89893 8.60942L7.08893 8.07942C7.61893 7.98942 8.25893 7.51942 8.49893 7.02942L10.2589 3.50942C11.2189 1.59942 12.7789 1.59942 13.7289 3.50942Z" fill="#FFC400"/>
</svg>
