<svg width="26" height="26" viewBox="0 0 26 26" fill="none" xmlns="http://www.w3.org/2000/svg">
<path d="M9.74935 23.8333H16.2493C21.666 23.8333 23.8327 21.6667 23.8327 16.25V9.74999C23.8327 4.33332 21.666 2.16666 16.2493 2.16666H9.74935C4.33268 2.16666 2.16602 4.33332 2.16602 9.74999V16.25C2.16602 21.6667 4.33268 23.8333 9.74935 23.8333Z" stroke="#003C8F" stroke-width="1.5" stroke-linecap="round" stroke-linejoin="round"/>
<path opacity="0.4" d="M9.85742 12.9995V11.3961C9.85742 9.32697 11.3199 8.4928 13.1074 9.52197L14.4941 10.3236L15.8808 11.1253C17.6683 12.1545 17.6683 13.8445 15.8808 14.8736L14.4941 15.6753L13.1074 16.477C11.3199 17.5061 9.85742 16.6611 9.85742 14.6028V12.9995Z" stroke="#003C8F" stroke-width="1.5" stroke-miterlimit="10" stroke-linecap="round" stroke-linejoin="round"/>
</svg>
