<svg width="32" height="32" viewBox="0 0 32 32" fill="none" xmlns="http://www.w3.org/2000/svg">
<path opacity="0.4" d="M16.2134 14.4934C16.0801 14.48 15.9201 14.48 15.7734 14.4934C12.6001 14.3867 10.0801 11.7867 10.0801 8.58669C10.0801 5.32002 12.7201 2.66669 16.0001 2.66669C19.2667 2.66669 21.9201 5.32002 21.9201 8.58669C21.9067 11.7867 19.3867 14.3867 16.2134 14.4934Z" stroke="#3962D1" stroke-width="1.5" stroke-linecap="round" stroke-linejoin="round"/>
<path d="M9.54646 19.4133C6.3198 21.5733 6.3198 25.0933 9.54646 27.24C13.2131 29.6933 19.2265 29.6933 22.8931 27.24C26.1198 25.08 26.1198 21.56 22.8931 19.4133C19.2398 16.9733 13.2265 16.9733 9.54646 19.4133Z" stroke="#3962D1" stroke-width="1.5" stroke-linecap="round" stroke-linejoin="round"/>
</svg>
