<svg width="42" height="42" viewBox="0 0 42 42" fill="none" xmlns="http://www.w3.org/2000/svg">
<path opacity="0.4" d="M32.165 22.47V31.0975C32.165 33.32 30.4325 35.7 28.35 36.4L22.7675 38.255C21.7875 38.5875 20.195 38.5875 19.2325 38.255L13.65 36.4C11.55 35.7 9.83496 33.32 9.83496 31.0975L9.85246 22.47L17.5875 27.51C19.4775 28.7525 22.5925 28.7525 24.4825 27.51L32.165 22.47Z" fill="#0043A4"/>
<path d="M34.9652 11.305L24.4827 4.42748C22.5927 3.18498 19.4777 3.18498 17.5877 4.42748L7.05266 11.305C3.67516 13.4925 3.67516 18.445 7.05266 20.65L9.85266 22.47L17.5877 27.51C19.4777 28.7525 22.5927 28.7525 24.4827 27.51L32.1652 22.47L34.5627 20.895V26.25C34.5627 26.9675 35.1577 27.5625 35.8752 27.5625C36.5927 27.5625 37.1877 26.9675 37.1877 26.25V17.64C37.8877 15.3825 37.1702 12.7575 34.9652 11.305Z" fill="#0043A4"/>
</svg>
