<svg width="52" height="52" viewBox="0 0 52 52" fill="none" xmlns="http://www.w3.org/2000/svg">
<path opacity="0.4" d="M44.4165 22.0783H38.1548C33.0198 22.0783 28.8382 17.8966 28.8382 12.7616V6.49998C28.8382 5.30831 27.8632 4.33331 26.6715 4.33331H17.4848C10.8115 4.33331 5.4165 8.66665 5.4165 16.4016V35.5983C5.4165 43.3333 10.8115 47.6666 17.4848 47.6666H34.5148C41.1882 47.6666 46.5832 43.3333 46.5832 35.5983V24.245C46.5832 23.0533 45.6082 22.0783 44.4165 22.0783Z" fill="#3962D1"/>
<path d="M34.2333 4.78834C33.345 3.90001 31.8066 4.50667 31.8066 5.74167V13.3033C31.8066 16.4667 34.4933 19.0883 37.765 19.0883C39.8233 19.11 42.6833 19.11 45.1316 19.11C46.3666 19.11 47.0166 17.6583 46.15 16.7917C43.03 13.65 37.44 7.99501 34.2333 4.78834Z" fill="#3962D1"/>
<path d="M29.25 29.7917H16.25C15.3617 29.7917 14.625 29.055 14.625 28.1667C14.625 27.2784 15.3617 26.5417 16.25 26.5417H29.25C30.1383 26.5417 30.875 27.2784 30.875 28.1667C30.875 29.055 30.1383 29.7917 29.25 29.7917Z" fill="#3962D1"/>
<path d="M24.9167 38.4583H16.25C15.3617 38.4583 14.625 37.7216 14.625 36.8333C14.625 35.945 15.3617 35.2083 16.25 35.2083H24.9167C25.805 35.2083 26.5417 35.945 26.5417 36.8333C26.5417 37.7216 25.805 38.4583 24.9167 38.4583Z" fill="#3962D1"/>
</svg>
