<svg width="42" height="42" viewBox="0 0 42 42" fill="none" xmlns="http://www.w3.org/2000/svg">
<path opacity="0.4" d="M31.5 33.005H30.17C28.77 33.005 27.44 33.5475 26.46 34.5275L23.4675 37.485C22.1025 38.8325 19.88 38.8325 18.515 37.485L15.5225 34.5275C14.5425 33.5475 13.195 33.005 11.8125 33.005H10.5C7.595 33.005 5.25 30.6776 5.25 27.8076V8.71503C5.25 5.84503 7.595 3.51758 10.5 3.51758H31.5C34.405 3.51758 36.75 5.84503 36.75 8.71503V27.8076C36.75 30.6601 34.405 33.005 31.5 33.005Z" fill="#0043A4"/>
<path d="M18.1649 25.3925H13.4749C12.7049 25.3925 11.9874 25.025 11.5324 24.395C11.0949 23.8 10.9899 23.0651 11.1999 22.3651C11.8124 20.4926 13.3174 19.4775 14.6474 18.5675C16.0474 17.6225 16.8349 17.0276 16.8349 16.0126C16.8349 15.1026 16.0999 14.3676 15.1899 14.3676C14.2799 14.3676 13.5449 15.1026 13.5449 16.0126C13.5449 16.7301 12.9499 17.3251 12.2324 17.3251C11.5149 17.3251 10.9199 16.7301 10.9199 16.0126C10.9199 13.6676 12.8274 11.7426 15.1899 11.7426C17.5524 11.7426 19.4599 13.6501 19.4599 16.0126C19.4599 18.4801 17.6049 19.74 16.1174 20.755C15.1899 21.385 14.3149 21.98 13.8774 22.7675H18.1474C18.8649 22.7675 19.4599 23.3625 19.4599 24.08C19.4599 24.7975 18.8824 25.3925 18.1649 25.3925Z" fill="#0043A4"/>
<path d="M28.07 25.3925C27.3525 25.3925 26.7575 24.7975 26.7575 24.08V22.8725H23.3275C23.3275 22.8725 23.3275 22.8725 23.31 22.8725C22.4525 22.8725 21.665 22.4175 21.2275 21.6825C20.79 20.93 20.79 20.0025 21.2275 19.2675C22.4175 17.22 23.8 14.8925 25.06 12.8625C25.62 11.97 26.6875 11.5675 27.685 11.8475C28.6825 12.145 29.3825 13.055 29.365 14.105V20.265H29.75C30.4675 20.265 31.0625 20.86 31.0625 21.5775C31.0625 22.295 30.4675 22.89 29.75 22.89H29.3825V24.0975C29.3825 24.815 28.805 25.3925 28.07 25.3925ZM26.7575 15.12C25.725 16.8 24.6575 18.6025 23.695 20.2475H26.7575V15.12Z" fill="#0043A4"/>
</svg>
