<svg width="52" height="52" viewBox="0 0 52 52" fill="none" xmlns="http://www.w3.org/2000/svg">
<path opacity="0.4" d="M19.5002 4.33325C13.8235 4.33325 9.2085 8.94825 9.2085 14.6249C9.2085 20.1933 13.5635 24.6999 19.2402 24.8949C19.4135 24.8733 19.5868 24.8733 19.7168 24.8949C19.7602 24.8949 19.7818 24.8949 19.8252 24.8949C19.8468 24.8949 19.8468 24.8949 19.8685 24.8949C25.4152 24.6999 29.7702 20.1933 29.7918 14.6249C29.7918 8.94825 25.1768 4.33325 19.5002 4.33325Z" fill="#01A686"/>
<path d="M30.5066 30.6582C24.4616 26.6282 14.6032 26.6282 8.51492 30.6582C5.76325 32.4999 4.24658 34.9916 4.24658 37.6566C4.24658 40.3216 5.76325 42.7916 8.49325 44.6116C11.5266 46.6482 15.5132 47.6666 19.4999 47.6666C23.4866 47.6666 27.4732 46.6482 30.5066 44.6116C33.2366 42.7699 34.7533 40.2999 34.7533 37.6132C34.7316 34.9482 33.2366 32.4782 30.5066 30.6582Z" fill="#01A686"/>
<path opacity="0.4" d="M43.3118 15.9032C43.6584 20.1066 40.6684 23.7899 36.5301 24.2882C36.5084 24.2882 36.5084 24.2882 36.4868 24.2882H36.4218C36.2918 24.2882 36.1618 24.2882 36.0534 24.3316C33.9518 24.4399 32.0234 23.7682 30.5718 22.5332C32.8034 20.5399 34.0818 17.5499 33.8218 14.2999C33.6701 12.5449 33.0634 10.9416 32.1534 9.57656C32.9768 9.16489 33.9301 8.90489 34.9051 8.81822C39.1518 8.44989 42.9434 11.6132 43.3118 15.9032Z" fill="#01A686"/>
<path d="M47.6449 35.945C47.4715 38.0467 46.1282 39.8667 43.8749 41.1017C41.7082 42.2934 38.9782 42.8567 36.2699 42.7917C37.8299 41.3834 38.7399 39.6284 38.9132 37.765C39.1299 35.0784 37.8515 32.5 35.2949 30.4417C33.8432 29.2934 32.1532 28.3834 30.3115 27.7117C35.0999 26.325 41.1232 27.2567 44.8282 30.2467C46.8215 31.85 47.8399 33.865 47.6449 35.945Z" fill="#01A686"/>
</svg>
