<svg width="62" height="62" viewBox="0 0 62 62" fill="none" xmlns="http://www.w3.org/2000/svg">
<path d="M54.4827 18.0317C52.2868 15.6033 48.6185 14.3892 43.2968 14.3892H42.6768V14.2858C42.6768 9.94584 42.6768 4.57251 32.9635 4.57251H29.0368C19.3235 4.57251 19.3235 9.97168 19.3235 14.2858V14.415H18.7035C13.356 14.415 9.71351 15.6292 7.51768 18.0575C4.96018 20.8992 5.03768 24.7225 5.29601 27.3317L5.32184 27.5125L5.58018 30.225C5.60601 30.2508 5.65768 30.3025 5.70934 30.3283C6.56184 30.8967 7.44018 31.465 8.37018 31.9817C8.73184 32.2142 9.11934 32.4208 9.50684 32.6275C13.9243 35.0558 18.781 36.6833 23.7152 37.4842C23.9477 39.9125 25.0068 42.7542 30.6643 42.7542C36.3218 42.7542 37.4327 39.9383 37.6135 37.4325C42.8835 36.58 47.9727 34.7458 52.571 32.0592C52.726 31.9817 52.8293 31.9042 52.9585 31.8267C54.1468 31.155 55.2577 30.4317 56.3427 29.6308C56.3943 29.605 56.446 29.5533 56.4718 29.5017L56.5752 28.5717L56.7043 27.3575C56.7302 27.2025 56.7302 27.0733 56.756 26.8925C56.9627 24.2833 56.911 20.7183 54.4827 18.0317ZM33.816 35.7275C33.816 38.4658 33.816 38.8792 30.6385 38.8792C27.461 38.8792 27.461 38.3883 27.461 35.7533V32.4983H33.816V35.7275ZM23.0177 14.3892V14.2858C23.0177 9.89418 23.0177 8.26668 29.0368 8.26668H32.9635C38.9827 8.26668 38.9827 9.92001 38.9827 14.2858V14.415H23.0177V14.3892Z" fill="#FF9100"/>
<path opacity="0.4" d="M52.9584 31.775C52.8292 31.8525 52.7001 31.93 52.5709 32.0075C47.9726 34.6941 42.8834 36.5025 37.6134 37.3808C37.4067 39.8608 36.3217 42.7025 30.6642 42.7025C25.0067 42.7025 23.9217 39.8866 23.7151 37.4325C18.7809 36.6575 13.9242 35.03 9.50675 32.5758C9.11925 32.3691 8.73174 32.1625 8.37008 31.93C7.44008 31.4133 6.56174 30.845 5.70924 30.2766C5.65758 30.2508 5.60591 30.1991 5.58008 30.1733L7.15591 46.9908C7.69841 52.1316 9.81674 57.4275 21.1834 57.4275H40.8684C52.2351 57.4275 54.3534 52.1316 54.8959 46.965L56.5234 29.45C56.4976 29.5016 56.4459 29.5533 56.3942 29.5791C55.2834 30.38 54.1467 31.1291 52.9584 31.775Z" fill="#FF9100"/>
</svg>
