<svg width="62" height="62" viewBox="0 0 62 62" fill="none" xmlns="http://www.w3.org/2000/svg">
<path opacity="0.4" d="M49.0832 23.2501C49.0832 26.9959 47.9723 30.4318 46.0607 33.2993C43.2707 37.4326 38.8532 40.3518 33.7123 41.1009C32.834 41.2559 31.9298 41.3334 30.9998 41.3334C30.0698 41.3334 29.1657 41.2559 28.2873 41.1009C23.1465 40.3518 18.729 37.4326 15.939 33.2993C14.0273 30.4318 12.9165 26.9959 12.9165 23.2501C12.9165 13.2526 21.0023 5.16675 30.9998 5.16675C40.9973 5.16675 49.0832 13.2526 49.0832 23.2501Z" fill="#4691FC"/>
<path d="M54.8961 47.7141L50.6336 48.7216C49.6778 48.9541 48.9286 49.6775 48.722 50.6333L47.8178 54.4308C47.327 56.4975 44.692 57.1175 43.3228 55.49L31.0003 41.3333L18.6778 55.5158C17.3086 57.1433 14.6736 56.5233 14.1828 54.4566L13.2786 50.6591C13.0461 49.7033 12.297 48.9541 11.367 48.7475L7.10445 47.74C5.14112 47.275 4.44362 44.8208 5.86445 43.3999L15.9395 33.325C18.7295 37.4583 23.147 40.3775 28.2878 41.1267C29.1661 41.2817 30.0703 41.3592 31.0003 41.3592C31.9303 41.3592 32.8345 41.2817 33.7128 41.1267C38.8536 40.3775 43.2711 37.4583 46.0611 33.325L56.1361 43.3999C57.557 44.7949 56.8595 47.2491 54.8961 47.7141Z" fill="#4691FC"/>
<path d="M32.4986 15.4483L34.0228 18.4966C34.2294 18.9099 34.7719 19.3232 35.2628 19.4007L38.0269 19.8657C39.7836 20.1499 40.1969 21.4416 38.9311 22.7074L36.7869 24.8515C36.4253 25.2132 36.2186 25.9108 36.3478 26.4274L36.9678 29.0882C37.4586 31.1807 36.3478 32.0074 34.4878 30.8965L31.9044 29.3724C31.4394 29.0882 30.6644 29.0882 30.1994 29.3724L27.6161 30.8965C25.7561 31.9815 24.6453 31.1807 25.1361 29.0882L25.7561 26.4274C25.8594 25.9366 25.6786 25.2132 25.3169 24.8515L23.1728 22.7074C21.9069 21.4416 22.3203 20.1757 24.0769 19.8657L26.8411 19.4007C27.3061 19.3232 27.8486 18.9099 28.0553 18.4966L29.5794 15.4483C30.3286 13.7949 31.6719 13.7949 32.4986 15.4483Z" fill="#4691FC"/>
</svg>
