<svg width="52" height="52" viewBox="0 0 52 52" fill="none" xmlns="http://www.w3.org/2000/svg">
<path opacity="0.4" d="M39 44.4167H36.8333V43.8751C36.8333 41.4917 34.8833 39.5417 32.5 39.5417H27.625V34.5801C27.0833 34.6451 26.5417 34.6667 26 34.6667C25.4583 34.6667 24.9167 34.6451 24.375 34.5801V39.5417H19.5C17.1167 39.5417 15.1667 41.4917 15.1667 43.8751V44.4167H13C12.1117 44.4167 11.375 45.1534 11.375 46.0417C11.375 46.9301 12.1117 47.6667 13 47.6667H39C39.8883 47.6667 40.625 46.9301 40.625 46.0417C40.625 45.1534 39.8883 44.4167 39 44.4167Z" fill="#FF9100"/>
<path opacity="0.4" d="M11.9599 25.2199C10.5299 24.6783 9.27327 23.7899 8.27661 22.7933C6.26161 20.5616 4.93994 17.8966 4.93994 14.7766C4.93994 11.6566 7.38827 9.20825 10.5083 9.20825H11.7216C11.1583 10.3566 10.8333 11.6349 10.8333 12.9999V19.4999C10.8333 21.5366 11.2233 23.4649 11.9599 25.2199Z" fill="#FF9100"/>
<path opacity="0.4" d="M47.06 14.7766C47.06 17.8966 45.7384 20.5616 43.7234 22.7933C42.7267 23.7899 41.47 24.6783 40.04 25.2199C40.7767 23.4649 41.1667 21.5366 41.1667 19.4999V12.9999C41.1667 11.6349 40.8417 10.3566 40.2784 9.20825H41.4917C44.6117 9.20825 47.06 11.6566 47.06 14.7766Z" fill="#FF9100"/>
<path d="M32.5002 4.33325H19.5002C14.7118 4.33325 10.8335 8.21159 10.8335 12.9999V19.4999C10.8335 27.8849 17.6152 34.6666 26.0002 34.6666C34.3852 34.6666 41.1668 27.8849 41.1668 19.4999V12.9999C41.1668 8.21159 37.2885 4.33325 32.5002 4.33325ZM32.1535 18.3083L30.8102 19.9549C30.5935 20.1933 30.4418 20.6699 30.4635 20.9949L30.5935 23.1183C30.6802 24.4183 29.7485 25.0899 28.5352 24.6133L26.5635 23.8333C26.2602 23.7249 25.7402 23.7249 25.4368 23.8333L23.4652 24.6133C22.2518 25.0899 21.3202 24.4183 21.4068 23.1183L21.5368 20.9949C21.5585 20.6699 21.4068 20.1933 21.1902 19.9549L19.8468 18.3083C19.0018 17.3116 19.3702 16.2066 20.6268 15.8816L22.6852 15.3616C23.0102 15.2749 23.4002 14.9716 23.5735 14.6899L24.7218 12.9133C25.4368 11.8083 26.5635 11.8083 27.2785 12.9133L28.4268 14.6899C28.6002 14.9716 28.9902 15.2749 29.3152 15.3616L31.3735 15.8816C32.6302 16.2066 32.9985 17.3116 32.1535 18.3083Z" fill="#FF9100"/>
<path opacity="0.4" d="M32.1534 18.3082L30.8101 19.9549C30.5934 20.1932 30.4418 20.6699 30.4634 20.9949L30.5934 23.1182C30.6801 24.4182 29.7484 25.0899 28.5351 24.6132L26.5634 23.8332C26.2601 23.7249 25.7401 23.7249 25.4368 23.8332L23.4651 24.6132C22.2518 25.0899 21.3201 24.4182 21.4068 23.1182L21.5368 20.9949C21.5584 20.6699 21.4068 20.1932 21.1901 19.9549L19.8468 18.3082C19.0018 17.3116 19.3701 16.2066 20.6268 15.8816L22.6851 15.3616C23.0101 15.2749 23.4001 14.9716 23.5734 14.6899L24.7218 12.9132C25.4368 11.8082 26.5634 11.8082 27.2784 12.9132L28.4268 14.6899C28.6001 14.9716 28.9901 15.2749 29.3151 15.3616L31.3734 15.8816C32.6301 16.2066 32.9984 17.3116 32.1534 18.3082Z" fill="#FF9100"/>
</svg>
