<svg width="52" height="52" viewBox="0 0 52 52" fill="none" xmlns="http://www.w3.org/2000/svg">
<path opacity="0.4" d="M30.3335 10.8333V21.6666H28.1668C24.5918 21.6666 21.6668 24.5916 21.6668 28.1666V30.3333H10.8335C7.23683 30.3333 4.3335 27.4299 4.3335 23.8333V10.8333C4.3335 7.23659 7.23683 4.33325 10.8335 4.33325H23.8335C27.4302 4.33325 30.3335 7.23659 30.3335 10.8333Z" fill="#01A686"/>
<path d="M11.2664 14.3651C10.7681 14.3651 10.2481 14.1267 9.94476 13.6717C9.42476 12.935 9.5981 11.9167 10.3348 11.3967C12.0248 10.2051 14.2998 10.1834 16.0114 11.3534C16.7481 11.8517 16.9431 12.8701 16.4448 13.6068C15.9464 14.3434 14.9281 14.5383 14.1914 14.04C13.6064 13.65 12.8264 13.65 12.2414 14.0617C11.9164 14.2784 11.5914 14.3651 11.2664 14.3651Z" fill="#01A686"/>
<path d="M19.9334 14.3651C19.4351 14.3651 18.9151 14.1267 18.6118 13.6717C18.0918 12.935 18.2651 11.9167 19.0018 11.3967C20.6918 10.2051 22.9668 10.1834 24.6784 11.3534C25.4151 11.8517 25.6101 12.8701 25.1118 13.6068C24.6134 14.3434 23.5951 14.5383 22.8584 14.04C22.2734 13.65 21.4934 13.65 20.9084 14.0617C20.5834 14.2784 20.2584 14.3651 19.9334 14.3651Z" fill="#01A686"/>
<path d="M17.6801 26.3684H12.6534C11.1151 26.3684 9.8584 25.1117 9.8584 23.5734C9.8584 19.4567 13.2167 16.0984 17.3334 16.0984C19.0234 16.0984 20.6917 16.6834 22.0134 17.7451C22.7067 18.3084 22.8367 19.3267 22.2734 20.02C21.7101 20.7134 20.6917 20.8434 19.9984 20.28C19.2401 19.6734 18.3301 19.3484 17.3551 19.3484C15.1884 19.3484 13.3901 20.995 13.1517 23.1184H17.7017C18.5901 23.1184 19.3267 23.855 19.3267 24.7434C19.3267 25.6317 18.5684 26.3684 17.6801 26.3684Z" fill="#01A686"/>
<path d="M39.4766 36.1399C39.3249 35.9665 39.1082 35.8799 38.8699 35.8799H30.4632C30.2249 35.8799 30.0082 35.9665 29.8565 36.1399C29.7049 36.3132 29.6182 36.5515 29.6615 36.7682C29.9432 39.3248 32.0882 41.2749 34.6665 41.2749C37.2449 41.2749 39.3899 39.3465 39.6716 36.7682C39.6932 36.5298 39.6282 36.3132 39.4766 36.1399Z" fill="#01A686"/>
<path d="M41.1665 21.6667H28.1665C24.5915 21.6667 21.6665 24.5917 21.6665 28.1667V41.1667C21.6665 44.7417 24.5915 47.6667 28.1665 47.6667H41.1665C44.7415 47.6667 47.6665 44.7417 47.6665 41.1667V28.1667C47.6665 24.5917 44.7415 21.6667 41.1665 21.6667ZM27.2782 28.535C27.7982 27.7984 28.8165 27.6251 29.5532 28.1451C30.1382 28.5567 30.9182 28.5567 31.5032 28.1667C32.2398 27.6467 33.2582 27.8418 33.7565 28.6001C34.2548 29.3368 34.0815 30.3551 33.3232 30.8534C32.4782 31.4167 31.5032 31.7201 30.5282 31.7201C29.5098 31.7201 28.5132 31.4167 27.6682 30.81C26.9315 30.2684 26.7582 29.25 27.2782 28.535ZM34.6665 43.7017C30.5498 43.7017 27.1915 40.3434 27.1915 36.2267C27.1915 34.6884 28.4482 33.4317 29.9865 33.4317H39.3465C40.8848 33.4317 42.1415 34.6884 42.1415 36.2267C42.1415 40.3434 38.7832 43.7017 34.6665 43.7017ZM41.9898 30.8317C41.1448 31.395 40.1698 31.6984 39.1948 31.6984C38.1765 31.6984 37.1798 31.3951 36.3348 30.7885C35.5982 30.2685 35.4248 29.25 35.9448 28.5134C36.4648 27.7767 37.4832 27.6034 38.2198 28.1234C38.8048 28.535 39.5848 28.5351 40.1698 28.1451C40.9065 27.6251 41.9248 27.8201 42.4232 28.5784C42.9215 29.3368 42.7265 30.3334 41.9898 30.8317Z" fill="#01A686"/>
</svg>
