<svg width="62" height="62" viewBox="0 0 62 62" fill="none" xmlns="http://www.w3.org/2000/svg">
<path d="M44.4332 32.0332C37.5874 32.0332 32.0332 37.5874 32.0332 44.4333C32.0332 46.7583 32.679 48.9541 33.8415 50.8141C35.9857 54.4049 39.9124 56.8332 44.4332 56.8332C48.954 56.8332 52.9065 54.4049 55.0249 50.8141C56.1615 48.9541 56.8332 46.7583 56.8332 44.4333C56.8332 37.5874 51.279 32.0332 44.4332 32.0332ZM50.5815 42.8057L43.9682 48.9024C43.6065 49.2382 43.1157 49.4191 42.6507 49.4191C42.1599 49.4191 41.669 49.2382 41.2815 48.8507L38.2332 45.8024C37.484 45.0532 37.484 43.8133 38.2332 43.0641C38.9824 42.3149 40.2224 42.3149 40.9715 43.0641L42.7024 44.7949L47.9465 39.9382C48.7215 39.2149 49.9615 39.2666 50.6849 40.0416C51.4082 40.8424 51.3565 42.0824 50.5815 42.8057Z" fill="#FB5353"/>
<path opacity="0.4" d="M56.8332 22.4491C56.8332 25.5233 56.3424 28.365 55.4898 31C54.9473 32.7308 54.2498 34.3841 53.4232 35.9083C51.1498 33.5058 47.9723 32.0333 44.4332 32.0333C37.5873 32.0333 32.0332 37.5875 32.0332 44.4333C32.0332 47.6108 33.2473 50.5041 35.2107 52.6999C34.2548 53.1391 33.3765 53.5008 32.6015 53.7591C31.7232 54.0691 30.2765 54.0691 29.3982 53.7591C23.1723 51.6408 10.5915 43.9166 6.50984 31C5.65734 28.365 5.1665 25.5233 5.1665 22.4491C5.1665 14.4666 11.599 8.0083 19.5298 8.0083C24.2057 8.0083 28.3907 10.2816 30.9998 13.7691C33.609 10.2816 37.794 8.0083 42.4698 8.0083C50.4007 8.0083 56.8332 14.4666 56.8332 22.4491Z" fill="#FB5353"/>
</svg>
