<svg width="52" height="52" viewBox="0 0 52 52" fill="none" xmlns="http://www.w3.org/2000/svg">
<path opacity="0.4" d="M26.0002 47.6667C37.9663 47.6667 47.6668 37.9662 47.6668 26C47.6668 14.0338 37.9663 4.33333 26.0002 4.33333C14.034 4.33333 4.3335 14.0338 4.3335 26C4.3335 37.9662 14.034 47.6667 26.0002 47.6667Z" fill="white"/>
<path d="M34.0385 34.515C33.7569 34.515 33.4752 34.45 33.2152 34.2767L26.4985 30.2683C24.8302 29.2717 23.5952 27.0833 23.5952 25.155V16.2717C23.5952 15.3833 24.3319 14.6467 25.2202 14.6467C26.1085 14.6467 26.8452 15.3833 26.8452 16.2717V25.155C26.8452 25.935 27.4952 27.0833 28.1669 27.4733L34.8835 31.4817C35.6635 31.9367 35.9019 32.9333 35.4469 33.7133C35.1219 34.2333 34.5802 34.515 34.0385 34.515Z" fill="white"/>
</svg>
