<svg width="52" height="52" viewBox="0 0 52 52" fill="none" xmlns="http://www.w3.org/2000/svg">
<path d="M36.2915 7.71332V4.33333C36.2915 3.44499 35.5548 2.70833 34.6665 2.70833C33.7782 2.70833 33.0415 3.44499 33.0415 4.33333V7.58333H18.9582V4.33333C18.9582 3.44499 18.2215 2.70833 17.3332 2.70833C16.4448 2.70833 15.7082 3.44499 15.7082 4.33333V7.71332C9.85816 8.25499 7.01985 11.7433 6.58651 16.9217C6.54318 17.55 7.06318 18.07 7.66985 18.07H44.3298C44.9581 18.07 45.4781 17.5283 45.4131 16.9217C44.9798 11.7433 42.1415 8.25499 36.2915 7.71332Z" fill="white"/>
<path opacity="0.4" d="M43.3333 21.32C44.525 21.32 45.5 22.295 45.5 23.4867V36.8333C45.5 43.3333 42.25 47.6667 34.6667 47.6667H17.3333C9.75 47.6667 6.5 43.3333 6.5 36.8333V23.4867C6.5 22.295 7.475 21.32 8.66667 21.32H43.3333Z" fill="white"/>
<path d="M18.4167 32.5C18.135 32.5 17.8533 32.435 17.5933 32.3267C17.3333 32.2183 17.095 32.0666 16.8784 31.8716C16.6834 31.655 16.5316 31.4167 16.4233 31.1567C16.315 30.8967 16.25 30.615 16.25 30.3333C16.25 30.0516 16.315 29.77 16.4233 29.51C16.5316 29.25 16.6834 29.0117 16.8784 28.795C17.095 28.6 17.3333 28.4483 17.5933 28.3399C18.1133 28.1233 18.72 28.1233 19.24 28.3399C19.5 28.4483 19.7383 28.6 19.955 28.795C20.15 29.0117 20.3017 29.25 20.41 29.51C20.5184 29.77 20.5833 30.0516 20.5833 30.3333C20.5833 30.615 20.5184 30.8967 20.41 31.1567C20.3017 31.4167 20.15 31.655 19.955 31.8716C19.7383 32.0666 19.5 32.2183 19.24 32.3267C18.98 32.435 18.6983 32.5 18.4167 32.5Z" fill="white"/>
<path d="M26.0002 32.5C25.7185 32.5 25.4368 32.435 25.1768 32.3267C24.9168 32.2184 24.6785 32.0667 24.4618 31.8717C24.0718 31.46 23.8335 30.8967 23.8335 30.3334C23.8335 29.77 24.0718 29.2067 24.4618 28.795C24.6785 28.6 24.9168 28.4483 25.1768 28.34C25.6968 28.1017 26.3035 28.1017 26.8235 28.34C27.0835 28.4483 27.3218 28.6 27.5385 28.795C27.9285 29.2067 28.1668 29.77 28.1668 30.3334C28.1668 30.8967 27.9285 31.46 27.5385 31.8717C27.3218 32.0667 27.0835 32.2184 26.8235 32.3267C26.5635 32.435 26.2818 32.5 26.0002 32.5Z" fill="white"/>
<path d="M18.4167 40.0833C18.135 40.0833 17.8533 40.0183 17.5933 39.91C17.3333 39.8017 17.095 39.65 16.8784 39.455C16.4884 39.0433 16.25 38.48 16.25 37.9166C16.25 37.3533 16.4884 36.79 16.8784 36.3783C17.095 36.1833 17.3333 36.0316 17.5933 35.9233C18.1133 35.7066 18.72 35.7066 19.24 35.9233C19.5 36.0316 19.7383 36.1833 19.955 36.3783C20.345 36.79 20.5833 37.3533 20.5833 37.9166C20.5833 38.48 20.345 39.0433 19.955 39.455C19.7383 39.65 19.5 39.8017 19.24 39.91C18.98 40.0183 18.6983 40.0833 18.4167 40.0833Z" fill="white"/>
</svg>
