<svg width="52" height="52" viewBox="0 0 52 52" fill="none" xmlns="http://www.w3.org/2000/svg">
<path opacity="0.4" d="M44.6769 18.3083C42.4019 8.29834 33.6702 3.79167 26.0002 3.79167C26.0002 3.79167 26.0002 3.79167 25.9785 3.79167C18.3302 3.79167 9.57687 8.27667 7.30187 18.2867C4.76687 29.4667 11.6135 38.935 17.8102 44.8933C20.1069 47.1033 23.0535 48.2083 26.0002 48.2083C28.9469 48.2083 31.8935 47.1033 34.1685 44.8933C40.3652 38.935 47.2119 29.4883 44.6769 18.3083Z" fill="white"/>
<path d="M25.9998 29.1633C29.7691 29.1633 32.8248 26.1077 32.8248 22.3383C32.8248 18.569 29.7691 15.5133 25.9998 15.5133C22.2305 15.5133 19.1748 18.569 19.1748 22.3383C19.1748 26.1077 22.2305 29.1633 25.9998 29.1633Z" fill="white"/>
</svg>
