<svg width="42" height="42" viewBox="0 0 42 42" fill="none" xmlns="http://www.w3.org/2000/svg">
<path d="M19.4773 27.79C19.0398 27.79 18.6023 27.5625 18.3573 27.16C17.9898 26.5475 18.1823 25.725 18.8123 25.3575L20.3698 24.43V22.54C20.3698 21.8225 20.9648 21.2275 21.6823 21.2275C22.3998 21.2275 22.9948 21.8225 22.9948 22.54V25.165C22.9948 25.62 22.7498 26.0575 22.3648 26.285L20.1773 27.5975C19.9323 27.72 19.7048 27.79 19.4773 27.79Z" fill="#01A686"/>
<path opacity="0.4" d="M38.2377 19.9675L37.1527 31.8325C36.7852 35.3325 35.3502 38.9025 27.6502 38.9025H14.3152C6.6152 38.9025 5.1802 35.3325 4.8302 31.85L3.7627 20.4575C3.7802 20.475 3.7977 20.4925 3.8327 20.51C4.4277 20.895 5.0052 21.28 5.6352 21.63C5.8802 21.7875 6.1427 21.9275 6.4052 22.0675C8.3827 23.1525 10.5002 24.01 12.6877 24.605C13.5627 24.8675 14.4552 25.06 15.3652 25.2175C15.7152 28.0175 18.1127 30.1875 21.0002 30.1875C23.9227 30.1875 26.3377 27.965 26.6527 25.1125V25.095C27.5452 24.92 28.4377 24.6925 29.3127 24.43C31.5002 23.7475 33.6177 22.8375 35.5952 21.6825C35.7002 21.63 35.7877 21.5775 35.8577 21.525C36.6627 21.0875 37.4327 20.58 38.1677 20.055C38.2027 20.0375 38.2202 20.0025 38.2377 19.9675Z" fill="#01A686"/>
<path d="M36.9073 12.215C35.4198 10.57 32.9523 9.74747 29.3298 9.74747H28.9098V9.67747C28.9098 6.73747 28.9098 3.09747 22.3298 3.09747H19.6698C13.0898 3.09747 13.0898 6.73747 13.0898 9.67747V9.74747H12.6698C9.04732 9.74747 6.56232 10.57 5.09232 12.215C3.35982 14.1575 3.41232 16.73 3.58732 18.4975L3.60482 18.62L3.76232 20.4575C3.77982 20.475 3.81482 20.4925 3.84982 20.51C4.44482 20.895 5.02232 21.28 5.65232 21.63C5.89732 21.7875 6.15982 21.9275 6.42232 22.0675C8.39982 23.1525 10.5173 24.01 12.6873 24.605C12.7398 29.1375 16.4498 32.8125 20.9998 32.8125C25.5848 32.8125 29.3123 29.085 29.3123 24.5V24.43C31.5173 23.765 33.6348 22.8375 35.6123 21.6825C35.7173 21.63 35.7873 21.5775 35.8748 21.525C36.6798 21.0875 37.4498 20.58 38.1848 20.055C38.2023 20.0375 38.2373 20.0025 38.2548 19.9675L38.3248 19.3375L38.4123 18.515C38.4298 18.41 38.4298 18.3225 38.4473 18.2C38.5873 16.45 38.5523 14.035 36.9073 12.215ZM15.5923 9.67747C15.5923 6.70247 15.5923 5.58247 19.6698 5.58247H22.3298C26.4073 5.58247 26.4073 6.70247 26.4073 9.67747V9.74747H15.5923V9.67747ZM20.9998 30.1875C18.1123 30.1875 15.7148 28.0175 15.3648 25.2175C15.3298 24.99 15.3123 24.745 15.3123 24.5C15.3123 21.3675 17.8673 18.8125 20.9998 18.8125C24.1323 18.8125 26.6873 21.3675 26.6873 24.5C26.6873 24.71 26.6698 24.9025 26.6523 25.095V25.1125C26.3373 27.965 23.9223 30.1875 20.9998 30.1875Z" fill="#01A686"/>
</svg>
