<svg width="52" height="52" viewBox="0 0 52 52" fill="none" xmlns="http://www.w3.org/2000/svg">
<path opacity="0.4" d="M25.9998 47.6667C36.3745 47.6667 44.7848 39.2563 44.7848 28.8817C44.7848 18.507 36.3745 10.0967 25.9998 10.0967C15.6252 10.0967 7.21484 18.507 7.21484 28.8817C7.21484 39.2563 15.6252 47.6667 25.9998 47.6667Z" fill="white"/>
<path d="M26 29.7917C25.1117 29.7917 24.375 29.055 24.375 28.1667V17.3333C24.375 16.445 25.1117 15.7083 26 15.7083C26.8883 15.7083 27.625 16.445 27.625 17.3333V28.1667C27.625 29.055 26.8883 29.7917 26 29.7917Z" fill="white"/>
<path d="M32.2611 7.475H19.7377C18.8711 7.475 18.1777 6.78167 18.1777 5.915C18.1777 5.04834 18.8711 4.33334 19.7377 4.33334H32.2611C33.1277 4.33334 33.8211 5.02667 33.8211 5.89334C33.8211 6.76 33.1277 7.475 32.2611 7.475Z" fill="white"/>
</svg>
