<svg width="25" height="24" viewBox="0 0 25 24" fill="none" xmlns="http://www.w3.org/2000/svg">
<path d="M16.5432 5.6499L13.4432 3.2499C13.0432 2.8499 12.1432 2.6499 11.5432 2.6499H7.74317C6.54317 2.6499 5.24317 3.5499 4.94317 4.7499L2.54317 12.0499C2.04317 13.4499 2.94317 14.6499 4.44317 14.6499H8.44317C9.04317 14.6499 9.54317 15.1499 9.44317 15.8499L8.94317 19.0499C8.74317 19.9499 9.34317 20.9499 10.2432 21.2499C11.0432 21.5499 12.0432 21.1499 12.4432 20.5499L16.5432 14.4499" stroke="#D9D9D9" stroke-width="1.5" stroke-miterlimit="10"/>
<path d="M21.6436 5.65V15.45C21.6436 16.85 21.0436 17.35 19.6436 17.35H18.6436C17.2436 17.35 16.6436 16.85 16.6436 15.45V5.65C16.6436 4.25 17.2436 3.75 18.6436 3.75H19.6436C21.0436 3.75 21.6436 4.25 21.6436 5.65Z" stroke="#D9D9D9" stroke-width="1.5" stroke-linecap="round" stroke-linejoin="round"/>
</svg>
