<svg width="42" height="42" viewBox="0 0 42 42" fill="none" xmlns="http://www.w3.org/2000/svg">
<path opacity="0.4" d="M28.3316 3.5H13.6841C7.3141 3.5 3.5166 7.2975 3.5166 13.6675V28.315C3.5166 34.685 7.3141 38.4825 13.6841 38.4825H28.3316C34.7016 38.4825 38.4991 34.685 38.4991 28.315V13.6675C38.4991 7.2975 34.7016 3.5 28.3316 3.5Z" fill="white"/>
<path d="M24.3589 16.2399L24.4464 21.4024L29.0489 21.3324C29.3814 21.3324 29.6263 21.6299 29.5738 21.9449L28.9613 25.2874C28.9088 25.5324 28.6989 25.7074 28.4539 25.7249L24.5164 25.7949L24.7264 38.4824L19.4764 38.5699L19.2664 25.8824L16.2913 25.9349C15.9938 25.9349 15.7664 25.7074 15.7664 25.4099L15.7139 22.0849C15.7139 21.7874 15.9413 21.5599 16.2388 21.5599L19.2139 21.5074L19.1263 15.8199C19.0738 12.9149 21.3839 10.5349 24.2889 10.4824L29.0138 10.4124C29.3113 10.4124 29.5389 10.6399 29.5389 10.9374L29.6089 15.1374C29.6089 15.4349 29.3813 15.6624 29.0838 15.6624L24.8839 15.7324C24.5864 15.7149 24.3589 15.9599 24.3589 16.2399Z" fill="white"/>
</svg>
