<svg width="42" height="42" viewBox="0 0 42 42" fill="none" xmlns="http://www.w3.org/2000/svg">
<path opacity="0.4" d="M28.3325 3.5H13.6675C7.2975 3.5 3.5 7.2975 3.5 13.6675V28.315C3.5 34.7025 7.2975 38.5 13.6675 38.5H28.315C34.685 38.5 38.4825 34.7025 38.4825 28.3325V13.6675C38.5 7.2975 34.7025 3.5 28.3325 3.5Z" fill="white"/>
<path d="M21.0009 27.79C24.751 27.79 27.7909 24.75 27.7909 21C27.7909 17.25 24.751 14.21 21.0009 14.21C17.2509 14.21 14.2109 17.25 14.2109 21C14.2109 24.75 17.2509 27.79 21.0009 27.79Z" fill="white"/>
<path d="M29.75 13.125C29.2775 13.125 28.84 12.95 28.5075 12.6175C28.35 12.4425 28.2275 12.25 28.14 12.04C28.0525 11.83 28 11.6025 28 11.375C28 11.1475 28.0525 10.92 28.14 10.71C28.2275 10.4825 28.35 10.3075 28.5075 10.1325C28.91 9.73005 29.5225 9.53755 30.0825 9.66005C30.205 9.67755 30.31 9.71255 30.415 9.76505C30.52 9.80005 30.625 9.85255 30.73 9.92255C30.8175 9.97505 30.905 10.0625 30.9925 10.1325C31.15 10.3075 31.2725 10.4825 31.36 10.71C31.4475 10.92 31.5 11.1475 31.5 11.375C31.5 11.6025 31.4475 11.83 31.36 12.04C31.2725 12.25 31.15 12.4425 30.9925 12.6175C30.8175 12.775 30.625 12.8975 30.415 12.985C30.205 13.0725 29.9775 13.125 29.75 13.125Z" fill="white"/>
</svg>
