<svg width="32" height="32" viewBox="0 0 32 32" fill="none" xmlns="http://www.w3.org/2000/svg">
<path d="M12.0003 29.3334H20.0003C26.667 29.3334 29.3337 26.6667 29.3337 20V12C29.3337 5.33335 26.667 2.66669 20.0003 2.66669H12.0003C5.33366 2.66669 2.66699 5.33335 2.66699 12V20C2.66699 26.6667 5.33366 29.3334 12.0003 29.3334Z" stroke="#01A686" stroke-width="1.5" stroke-linecap="round" stroke-linejoin="round"/>
<path opacity="0.34" d="M15.9997 20.6666C18.577 20.6666 20.6663 18.5773 20.6663 16C20.6663 13.4227 18.577 11.3333 15.9997 11.3333C13.4223 11.3333 11.333 13.4227 11.333 16C11.333 18.5773 13.4223 20.6666 15.9997 20.6666Z" stroke="#01A686" stroke-width="1.5" stroke-linecap="round" stroke-linejoin="round"/>
<path opacity="0.34" d="M23.5152 9.33335H23.5306" stroke="#01A686" stroke-width="2" stroke-linecap="round" stroke-linejoin="round"/>
</svg>
