<svg width="25" height="24" viewBox="0 0 25 24" fill="none" xmlns="http://www.w3.org/2000/svg">
<path d="M7.50391 18.35L10.6039 20.75C11.0039 21.15 11.9039 21.35 12.5039 21.35H16.3039C17.5039 21.35 18.8039 20.45 19.1039 19.25L21.5039 11.95C22.0039 10.55 21.1039 9.34997 19.6039 9.34997H15.6039C15.0039 9.34997 14.5039 8.84997 14.6039 8.14997L15.1039 4.94997C15.3039 4.04997 14.7039 3.04997 13.8039 2.74997C13.0039 2.44997 12.0039 2.84997 11.6039 3.44997L7.50391 9.54997" stroke="#D9D9D9" stroke-width="1.5" stroke-miterlimit="10"/>
<path d="M2.40332 18.3499V8.5499C2.40332 7.1499 3.00332 6.6499 4.40332 6.6499H5.40332C6.80332 6.6499 7.40332 7.1499 7.40332 8.5499V18.3499C7.40332 19.7499 6.80332 20.2499 5.40332 20.2499H4.40332C3.00332 20.2499 2.40332 19.7499 2.40332 18.3499Z" stroke="#D9D9D9" stroke-width="1.5" stroke-linecap="round" stroke-linejoin="round"/>
</svg>
