<svg width="52" height="52" viewBox="0 0 52 52" fill="none" xmlns="http://www.w3.org/2000/svg">
<path opacity="0.4" d="M23.2913 5.30835C24.7863 4.03002 27.2346 4.03002 28.7513 5.30835L32.1746 8.25502C32.8246 8.81835 34.0379 9.27335 34.9046 9.27335H38.5879C40.8846 9.27335 42.7696 11.1584 42.7696 13.455V17.1384C42.7696 17.9834 43.2246 19.2184 43.7879 19.8684L46.7346 23.2917C48.0129 24.7867 48.0129 27.235 46.7346 28.7517L43.7879 32.175C43.2246 32.825 42.7696 34.0384 42.7696 34.905V38.5884C42.7696 40.885 40.8846 42.77 38.5879 42.77H34.9046C34.0596 42.77 32.8246 43.225 32.1746 43.7884L28.7513 46.735C27.2563 48.0134 24.8079 48.0134 23.2913 46.735L19.8679 43.7884C19.2179 43.225 18.0046 42.77 17.1379 42.77H13.3896C11.0929 42.77 9.20792 40.885 9.20792 38.5884V34.8834C9.20792 34.0384 8.75292 32.825 8.21125 32.175L5.28625 28.73C4.02958 27.235 4.02958 24.8084 5.28625 23.3134L8.21125 19.8684C8.75292 19.2184 9.20792 18.005 9.20792 17.16V13.4334C9.20792 11.1367 11.0929 9.25168 13.3896 9.25168H17.1379C17.9829 9.25168 19.2179 8.79669 19.8679 8.23335L23.2913 5.30835Z" fill="white"/>
<path d="M23.3776 32.8683C22.9442 32.8683 22.5326 32.695 22.2292 32.3917L16.9859 27.1483C16.3576 26.52 16.3576 25.48 16.9859 24.8517C17.6142 24.2233 18.6542 24.2233 19.2826 24.8517L23.3776 28.9467L32.6942 19.63C33.3226 19.0017 34.3626 19.0017 34.9909 19.63C35.6192 20.2583 35.6192 21.2983 34.9909 21.9267L24.5259 32.3917C24.2226 32.695 23.8109 32.8683 23.3776 32.8683Z" fill="white"/>
</svg>
