<svg width="42" height="42" viewBox="0 0 42 42" fill="none" xmlns="http://www.w3.org/2000/svg">
<path opacity="0.4" d="M12.145 36.1024C14.7525 37.6249 17.78 38.4999 21 38.4999C30.8525 38.4999 39.0425 29.8024 38.465 19.9674C37.87 9.81744 28.6475 1.99493 18.025 3.74493C10.71 4.95243 4.84752 10.8849 3.71002 18.1999C3.04502 22.4349 3.92006 26.4424 5.82756 29.7499L4.27004 35.5424C3.92004 36.8549 5.1275 38.0449 6.4225 37.6774L12.145 36.1024Z" fill="white"/>
<path d="M29.749 26.5475C29.749 26.8625 29.679 27.195 29.5215 27.51C29.364 27.825 29.1716 28.1225 28.9266 28.4025C28.4891 28.875 28.0166 29.225 27.4916 29.435C26.9666 29.6625 26.389 29.7675 25.7765 29.7675C24.884 29.7675 23.9215 29.5575 22.924 29.12C21.909 28.6825 20.9115 28.105 19.914 27.3875C18.899 26.6525 17.954 25.83 17.044 24.9375C16.134 24.0275 15.3291 23.065 14.5941 22.0675C13.8766 21.07 13.299 20.0725 12.879 19.075C12.459 18.0775 12.249 17.115 12.249 16.205C12.249 15.61 12.354 15.0325 12.564 14.5075C12.774 13.965 13.1065 13.475 13.579 13.0375C14.139 12.4775 14.7515 12.215 15.399 12.215C15.644 12.215 15.8891 12.2675 16.1166 12.3725C16.3441 12.4775 16.554 12.635 16.7115 12.8625L18.724 15.75C18.8815 15.9775 19.0041 16.17 19.0741 16.3625C19.1616 16.555 19.1965 16.73 19.1965 16.905C19.1965 17.115 19.1265 17.325 19.004 17.535C18.8815 17.745 18.7241 17.955 18.5141 18.165L17.849 18.865C17.744 18.97 17.709 19.075 17.709 19.215C17.709 19.285 17.7265 19.355 17.744 19.425C17.779 19.495 17.7965 19.5475 17.814 19.6C17.9715 19.8975 18.2516 20.265 18.6366 20.72C19.0391 21.175 19.459 21.6475 19.914 22.1025C20.3865 22.575 20.8415 22.995 21.314 23.3975C21.769 23.7825 22.1541 24.045 22.4516 24.2025C22.5041 24.22 22.5565 24.255 22.609 24.2725C22.679 24.3075 22.749 24.3075 22.8365 24.3075C22.994 24.3075 23.099 24.255 23.204 24.15L23.869 23.485C24.0965 23.2575 24.3065 23.1 24.499 22.995C24.709 22.8725 24.9015 22.8025 25.129 22.8025C25.304 22.8025 25.479 22.8375 25.6715 22.925C25.864 23.0125 26.0741 23.1175 26.2841 23.275L29.189 25.34C29.4165 25.4975 29.5741 25.69 29.6791 25.9C29.6966 26.0925 29.749 26.3025 29.749 26.5475Z" fill="white"/>
</svg>
