<svg width="52" height="52" viewBox="0 0 52 52" fill="none" xmlns="http://www.w3.org/2000/svg">
<path opacity="0.4" d="M25.9999 11.4833V46.215C25.6316 46.215 25.2416 46.15 24.9383 45.9767L24.8516 45.9333C20.6916 43.6583 13.4333 41.275 8.73159 40.6467L8.10325 40.56C6.02325 40.3 4.33325 38.35 4.33325 36.27V10.0967C4.33325 7.51834 6.43492 5.56834 9.01325 5.785C13.5633 6.15334 20.4533 8.45 24.3099 10.855L24.8516 11.18C25.1766 11.375 25.5883 11.4833 25.9999 11.4833Z" fill="#0043A4"/>
<path d="M47.6667 10.1183V36.27C47.6667 38.35 45.9767 40.3 43.8967 40.56L43.1817 40.6466C38.4583 41.275 31.1783 43.68 27.0183 45.9766C26.7367 46.15 26.39 46.215 26 46.215V11.4833C26.4117 11.4833 26.8233 11.375 27.1483 11.18L27.5167 10.9416C31.3733 8.51498 38.285 6.19665 42.835 5.80665H42.965C45.5433 5.58998 47.6667 7.51831 47.6667 10.1183Z" fill="#0043A4"/>
<path d="M16.7917 20.02H11.9167C11.0284 20.02 10.2917 19.2834 10.2917 18.395C10.2917 17.5067 11.0284 16.77 11.9167 16.77H16.7917C17.6801 16.77 18.4167 17.5067 18.4167 18.395C18.4167 19.2834 17.6801 20.02 16.7917 20.02Z" fill="#0043A4"/>
<path d="M18.4167 26.52H11.9167C11.0284 26.52 10.2917 25.7834 10.2917 24.895C10.2917 24.0067 11.0284 23.27 11.9167 23.27H18.4167C19.3051 23.27 20.0417 24.0067 20.0417 24.895C20.0417 25.7834 19.3051 26.52 18.4167 26.52Z" fill="#0043A4"/>
</svg>
