<svg width="52" height="52" viewBox="0 0 52 52" fill="none" xmlns="http://www.w3.org/2000/svg">
<path d="M47.6666 46.0417H4.33325C3.44492 46.0417 2.70825 46.7784 2.70825 47.6667C2.70825 48.5551 3.44492 49.2917 4.33325 49.2917H47.6666C48.5549 49.2917 49.2916 48.5551 49.2916 47.6667C49.2916 46.7784 48.5549 46.0417 47.6666 46.0417Z" fill="#0043A4"/>
<path opacity="0.4" d="M36.8333 4.33325H15.1667C8.66667 4.33325 6.5 8.21158 6.5 12.9999V47.6666H45.5V12.9999C45.5 8.21158 43.3333 4.33325 36.8333 4.33325Z" fill="#0043A4"/>
<path d="M30.4633 32.5H21.5149C20.4099 32.5 19.4783 33.41 19.4783 34.5367V47.6667H32.4783V34.5367C32.4999 33.41 31.5899 32.5 30.4633 32.5Z" fill="#0043A4"/>
<path d="M31.4166 16.7917H27.6249V13C27.6249 12.1117 26.8883 11.375 25.9999 11.375C25.1116 11.375 24.3749 12.1117 24.3749 13V16.7917H20.5833C19.6949 16.7917 18.9583 17.5283 18.9583 18.4167C18.9583 19.305 19.6949 20.0417 20.5833 20.0417H24.3749V23.8333C24.3749 24.7217 25.1116 25.4583 25.9999 25.4583C26.8883 25.4583 27.6249 24.7217 27.6249 23.8333V20.0417H31.4166C32.3049 20.0417 33.0416 19.305 33.0416 18.4167C33.0416 17.5283 32.3049 16.7917 31.4166 16.7917Z" fill="#0043A4"/>
</svg>
