<svg width="42" height="42" viewBox="0 0 42 42" fill="none" xmlns="http://www.w3.org/2000/svg">
<g opacity="0.8">
<path opacity="0.4" d="M30.6717 13.624C30.5497 13.6065 30.4258 13.6065 30.3038 13.624C28.9743 13.5757 27.7169 13.0075 26.8021 12.0416C25.8874 11.0757 25.3883 9.7893 25.4125 8.45918C25.4366 7.12906 25.9819 5.86156 26.9311 4.92943C27.8802 3.99731 29.1574 3.47505 30.4877 3.47505C31.8181 3.47505 33.0952 3.99731 34.0444 4.92943C34.9936 5.86156 35.5389 7.12906 35.563 8.45918C35.5871 9.7893 35.0881 11.0757 34.1733 12.0416C33.2586 13.0075 32.0012 13.5757 30.6717 13.624Z" fill="white"/>
<path opacity="0.4" d="M36.372 25.7351C34.1973 27.0586 31.6275 27.5781 29.1094 27.2034C29.7869 25.7229 30.1408 24.1149 30.1476 22.4868C30.161 20.7967 29.7766 19.1272 29.0254 17.6131C31.5634 17.2226 34.158 17.7376 36.3544 19.068C39.1247 20.8916 39.1247 23.8871 36.372 25.7351Z" fill="white"/>
<path opacity="0.4" d="M11.2762 13.624C11.3982 13.6065 11.5221 13.6065 11.6441 13.624C12.9736 13.5757 14.231 13.0075 15.1458 12.0416C16.0605 11.0757 16.5596 9.7893 16.5354 8.45918C16.5113 7.12906 15.966 5.86156 15.0168 4.92943C14.0677 3.99731 12.7905 3.47505 11.4602 3.47505C10.1298 3.47505 8.85265 3.99731 7.90347 4.92943C6.95429 5.86156 6.40898 7.12906 6.38487 8.45918C6.36076 9.7893 6.85978 11.0757 7.77455 12.0416C8.68933 13.0075 9.94673 13.5757 11.2762 13.624Z" fill="white"/>
<path opacity="0.4" d="M11.4846 22.4868C11.4818 24.1326 11.8349 25.7596 12.5195 27.2563C10.1009 27.5471 7.65479 27.0145 5.57607 25.7443C2.80407 23.903 2.80407 20.9051 5.57607 19.0638C7.67535 17.7817 10.1503 17.257 12.5892 17.577C11.8516 19.108 11.4738 20.7874 11.4846 22.4868Z" fill="white"/>
<path d="M21.2107 27.783C21.0592 27.7654 20.9061 27.7654 20.7546 27.783C19.5735 27.737 18.432 27.3447 17.4722 26.6548C16.5125 25.9649 15.7768 25.008 15.3568 23.9031C14.9368 22.7983 14.8511 21.5943 15.1102 20.4411C15.3694 19.2879 15.9621 18.2363 16.8144 17.4174C17.6667 16.5985 18.7411 16.0483 19.9037 15.8355C21.0664 15.6226 22.266 15.7563 23.3532 16.2201C24.4404 16.6839 25.3671 17.4572 26.0181 18.4438C26.6691 19.4304 27.0155 20.5866 27.0143 21.7686C27.0205 23.3294 26.4176 24.8311 25.3338 25.9543C24.25 27.0775 22.7708 27.7336 21.2107 27.783Z" fill="white"/>
<path d="M15.5124 31.374C12.8647 33.1447 12.8647 36.0553 15.5124 37.8092C17.1719 38.799 19.0682 39.3216 21.0005 39.3216C22.9328 39.3216 24.8291 38.799 26.4887 37.8092C29.1363 36.0385 29.1363 33.1279 26.4887 31.374C24.8291 30.3842 22.9328 29.8617 21.0005 29.8617C19.0682 29.8617 17.1719 30.3842 15.5124 31.374Z" fill="white"/>
</g>
</svg>
