<svg width="42" height="42" viewBox="0 0 42 42" fill="none" xmlns="http://www.w3.org/2000/svg">
<g opacity="0.8">
<path d="M36.9021 12.2338C35.4153 10.5865 32.9306 9.76248 29.327 9.76248H28.907V9.69276C28.907 6.74772 28.907 3.10212 22.3264 3.10212H19.6703C13.0923 3.10212 13.0923 6.76536 13.0923 9.69276V9.77676H12.6723C9.05104 9.77676 6.58396 10.6008 5.09716 12.248C3.36508 14.18 3.41716 16.7706 3.59272 18.5405L3.61036 18.6631L3.78508 20.5069C3.8096 20.5341 3.83789 20.5575 3.86908 20.5766C4.44616 20.9622 5.04508 21.3478 5.67088 21.698C5.91616 21.856 6.17488 21.9962 6.44032 22.1365C9.43669 23.7748 12.6909 24.8893 16.0625 25.4318C16.2196 27.0791 16.937 29.0077 20.7665 29.0077C24.5961 29.0077 25.3504 27.0976 25.4705 25.3957C29.0452 24.8151 32.4819 23.5792 35.6076 21.7501C35.7126 21.6972 35.7824 21.6451 35.8697 21.5922C36.6633 21.1427 37.4285 20.6451 38.1612 20.102C38.1967 20.0827 38.2259 20.0535 38.2452 20.018L38.315 19.3872L38.399 18.5632C38.4166 18.4582 38.4166 18.37 38.4342 18.2473C38.5821 16.4758 38.5468 14.0566 36.9021 12.2338ZM22.9068 24.2407C22.9068 26.0988 22.9068 26.3794 20.7548 26.3794C18.6027 26.3794 18.6027 26.0434 18.6027 24.2584V22.0492H22.906L22.9068 24.2407ZM15.5938 9.76248V9.69276C15.5938 6.71328 15.5938 5.60868 19.6703 5.60868H22.3264C26.4029 5.60868 26.4029 6.73008 26.4029 9.69276V9.77676H15.5938V9.76248Z" fill="white"/>
<path opacity="0.4" d="M35.8739 21.4923L35.6118 21.6502C32.4852 23.4708 29.0528 24.7062 25.4831 25.2958C25.3428 26.9758 24.6086 28.9078 20.7791 28.9078C16.9495 28.9078 16.2128 26.9976 16.0751 25.3319C12.6968 24.8061 9.43725 23.6904 6.44533 22.0357C6.18325 21.8955 5.92033 21.7552 5.67589 21.5973C5.04589 21.247 4.45033 20.8614 3.86989 20.4759C3.83863 20.4565 3.81034 20.4327 3.78589 20.4053L4.85269 31.8159C5.21977 35.3035 6.65449 38.8971 14.3522 38.8971H27.683C35.3808 38.8971 36.8147 35.3035 37.1826 31.7982L38.2838 19.9147C38.2645 19.9502 38.2353 19.9794 38.1998 19.9987C37.4569 20.5453 36.68 21.0441 35.8739 21.4923Z" fill="white"/>
</g>
</svg>
