<svg width="20" height="20" viewBox="0 0 20 20" fill="none" xmlns="http://www.w3.org/2000/svg">
<path d="M15.6253 7.08366C15.5972 8.54772 14.989 9.94072 13.9342 10.9565C12.8795 11.9723 11.4646 12.5276 10.0005 12.5006C8.53627 12.5279 7.12111 11.9726 6.06616 10.9568C5.01121 9.94104 4.40282 8.54789 4.37476 7.08366C4.40282 5.6196 5.01108 4.2266 6.06582 3.21083C7.12056 2.19507 8.53547 1.63968 9.99954 1.66673C11.4638 1.63942 12.8789 2.1947 13.9339 3.21049C14.9888 4.22628 15.5972 5.61943 15.6253 7.08366Z" fill="#FF9100"/>
<path opacity="0.4" d="M6.26672 11.2668L6.25806 17.417C6.25806 18.1667 6.78349 18.5333 7.43306 18.2254L9.66661 17.1668C9.7732 17.1218 9.88773 17.0987 10.0034 17.0987C10.1191 17.0987 10.2336 17.1218 10.3402 17.1668L12.5815 18.2254C13.2234 18.5256 13.7565 18.1667 13.7565 17.417V11.1167" fill="#FF9100"/>
</svg>
