<svg width="52" height="52" viewBox="0 0 52 52" fill="none" xmlns="http://www.w3.org/2000/svg">
<path opacity="0.4" d="M47.6666 13.5418V24.5918C47.6666 27.3434 46.7566 29.6618 45.1316 31.2651C43.5283 32.8901 41.2099 33.8001 38.4583 33.8001V37.7218C38.4583 39.1951 36.8116 40.0835 35.5982 39.2602L33.4966 37.8735C33.6916 37.2018 33.7782 36.4651 33.7782 35.6851V26.8669C33.7782 22.4469 30.8316 19.5002 26.4116 19.5002H11.6999C11.3966 19.5002 11.1149 19.5219 10.8333 19.5435V13.5418C10.8333 8.01683 14.5166 4.3335 20.0416 4.3335H38.4583C43.9832 4.3335 47.6666 8.01683 47.6666 13.5418Z" fill="#0043A4"/>
<path d="M33.7782 26.8667V35.6849C33.7782 36.4649 33.6916 37.2016 33.4966 37.8733C32.6949 41.0583 30.0516 43.0517 26.4116 43.0517H20.5183L13.9749 47.4067C12.9999 48.0783 11.6999 47.3633 11.6999 46.1933V43.0517C9.48991 43.0517 7.64826 42.315 6.36992 41.0367C5.06992 39.7367 4.33325 37.8949 4.33325 35.6849V26.8667C4.33325 22.7501 6.88992 19.9117 10.8333 19.5434C11.1149 19.5217 11.3966 19.5 11.6999 19.5H26.4116C30.8316 19.5 33.7782 22.4467 33.7782 26.8667Z" fill="#0043A4"/>
</svg>
