<svg width="100" height="100" viewBox="0 0 100 100" fill="none" xmlns="http://www.w3.org/2000/svg">
<path opacity="0.4" d="M49.8749 91.6668C72.8868 91.6668 91.5416 73.012 91.5416 50.0002C91.5416 26.9883 72.8868 8.3335 49.8749 8.3335C26.8631 8.3335 8.20825 26.9883 8.20825 50.0002C8.20825 73.012 26.8631 91.6668 49.8749 91.6668Z" fill="#01A686"/>
<path d="M62.375 42.6251L50.2917 35.6667C47.2917 33.9167 43.6667 33.9167 40.6667 35.6667C37.6667 37.4167 35.875 40.5001 35.875 44.0001V57.9584C35.875 61.4167 37.6667 64.5417 40.6667 66.2917C42.1667 67.1667 43.8333 67.5834 45.4583 67.5834C47.125 67.5834 48.75 67.1667 50.25 66.2917L62.3333 59.3334C65.3333 57.5834 67.125 54.5001 67.125 51.0001C67.2083 47.5001 65.4167 44.3751 62.375 42.6251Z" fill="#01A686"/>
</svg>
