<svg width="26" height="25" viewBox="0 0 26 25" fill="none" xmlns="http://www.w3.org/2000/svg">
<path d="M5.864 24.408C4.072 24.408 2.76 23.96 1.928 23.064C1.096 22.104 0.680001 20.44 0.680001 18.072C0.680001 13.208 0.904001 9.752 1.352 7.704C1.8 5.592 2.696 4.088 4.04 3.192C5.384 2.296 7.656 1.528 10.856 0.887999V6.264C9 6.648 7.72 7.032 7.016 7.41599C6.376 7.8 5.96 8.376 5.768 9.144C5.576 9.912 5.48 11.288 5.48 13.272C7.464 13.272 8.904 13.688 9.8 14.52C10.696 15.288 11.144 16.664 11.144 18.648C11.144 20.696 10.696 22.168 9.8 23.064C8.968 23.96 7.656 24.408 5.864 24.408ZM20.648 24.408C18.856 24.408 17.544 23.96 16.712 23.064C15.88 22.104 15.464 20.44 15.464 18.072C15.464 13.208 15.688 9.752 16.136 7.704C16.584 5.592 17.48 4.088 18.824 3.192C20.168 2.296 22.44 1.528 25.64 0.887999V6.264C23.784 6.648 22.504 7.032 21.8 7.41599C21.16 7.8 20.744 8.376 20.552 9.144C20.36 9.912 20.264 11.288 20.264 13.272C22.248 13.272 23.688 13.688 24.584 14.52C25.48 15.288 25.928 16.664 25.928 18.648C25.928 20.696 25.48 22.168 24.584 23.064C23.752 23.96 22.44 24.408 20.648 24.408Z" fill="#0043A4"/>
</svg>
