<svg width="52" height="52" viewBox="0 0 52 52" fill="none" xmlns="http://www.w3.org/2000/svg">
<path d="M22.9665 8.99188V13.0002H19.7599C16.2716 13.0002 14.5166 14.7551 14.5166 18.2435V39.0002H8.99164C5.8933 39.0002 4.33325 37.4401 4.33325 34.3418V8.99188C4.33325 5.89355 5.8933 4.3335 8.99164 4.3335H18.3083C21.4066 4.3335 22.9665 5.89355 22.9665 8.99188Z" fill="#01A686"/>
<path opacity="0.4" d="M37.6349 18.2434V42.4235C37.6349 45.9118 35.9016 47.6668 32.4133 47.6668H19.7599C16.2716 47.6668 14.5166 45.9118 14.5166 42.4235V18.2434C14.5166 14.7551 16.2716 13.0001 19.7599 13.0001H32.4133C35.9016 13.0001 37.6349 14.7551 37.6349 18.2434Z" fill="#01A686"/>
<path d="M47.6667 8.99188V34.3418C47.6667 37.4401 46.1067 39.0002 43.0083 39.0002H37.635V18.2435C37.635 14.7551 35.9018 13.0002 32.4134 13.0002H29.0334V8.99188C29.0334 5.89355 30.5934 4.3335 33.6917 4.3335H43.0083C46.1067 4.3335 47.6667 5.89355 47.6667 8.99188Z" fill="#01A686"/>
<path d="M30.3334 25.4585H21.6667C20.7784 25.4585 20.0417 24.7218 20.0417 23.8335C20.0417 22.9452 20.7784 22.2085 21.6667 22.2085H30.3334C31.2217 22.2085 31.9584 22.9452 31.9584 23.8335C31.9584 24.7218 31.2217 25.4585 30.3334 25.4585Z" fill="#01A686"/>
<path d="M30.3334 31.9585H21.6667C20.7784 31.9585 20.0417 31.2218 20.0417 30.3335C20.0417 29.4452 20.7784 28.7085 21.6667 28.7085H30.3334C31.2217 28.7085 31.9584 29.4452 31.9584 30.3335C31.9584 31.2218 31.2217 31.9585 30.3334 31.9585Z" fill="#01A686"/>
<path d="M27.625 41.1667V47.6667H24.375V41.1667C24.375 40.2784 25.1117 39.5417 26 39.5417C26.8883 39.5417 27.625 40.2784 27.625 41.1667Z" fill="#01A686"/>
</svg>
