<svg width="52" height="52" viewBox="0 0 52 52" fill="none" xmlns="http://www.w3.org/2000/svg">
<path opacity="0.4" d="M45.1534 28.5351C45.9984 28.5351 46.6701 27.8418 46.6701 26.9751V25.0684C46.6701 16.5534 44.0701 13.9751 35.5768 13.9751H21.9268V19.2401C22.7718 19.2401 23.4651 19.9334 23.4651 20.7784V26.5851C23.4651 27.4301 22.7718 28.1234 21.9268 28.1234V33.5618C22.7718 33.5618 23.4651 34.2551 23.4651 35.1001V40.9068C23.4651 41.7518 22.7718 42.4451 21.9268 42.4451V47.6668H35.5768C44.0701 47.6668 46.6701 45.0668 46.6701 36.5734C46.6701 35.7284 45.9984 35.0351 45.1534 35.0351C43.3334 35.0351 41.8818 33.5834 41.8818 31.7851C41.8818 29.9868 43.3334 28.5351 45.1534 28.5351Z" fill="#0043A4"/>
<path d="M16.4016 13.9966C16.4233 13.9966 16.4233 13.9966 16.4016 13.9966H16.4233H35.555C35.7066 13.9966 35.8583 13.9966 35.9883 13.9966C35.9666 13.9533 35.9666 13.9316 35.9666 13.8883C35.9016 13.1299 36.205 12.3933 36.7683 11.8299C37.05 11.5483 37.2233 11.1583 37.2233 10.7466C37.2233 10.3349 37.05 9.94492 36.7683 9.66325L35.5766 8.44992C33.4533 6.30492 31.1133 4.33325 28.3833 4.33325C25.675 4.33325 23.3133 6.30492 21.19 8.44992L15.6433 13.9966C15.8816 13.9966 16.1416 13.9966 16.4016 13.9966Z" fill="#0043A4"/>
<path d="M20.3884 20.7782V26.5849C20.3884 27.4299 21.0817 28.1232 21.9267 28.1232V33.5616C21.0817 33.5616 20.3884 34.2549 20.3884 35.0999V40.9066C20.3884 41.7516 21.0817 42.4449 21.9267 42.4449V47.6666H16.4234C7.93008 47.6666 5.33008 45.0666 5.33008 36.5732V35.6416C5.33008 34.7749 6.00174 34.1032 6.84674 34.1032C8.66674 34.1032 10.1184 32.6299 10.1184 30.8316C10.1184 29.0332 8.66674 27.5599 6.84674 27.5599C6.00174 27.5599 5.33008 26.8882 5.33008 26.0216V25.0899C5.33008 16.5749 7.93008 13.9966 16.4234 13.9966H21.9051V19.2616C21.0817 19.2616 20.3884 19.9549 20.3884 20.7782Z" fill="#0043A4"/>
</svg>
