<svg xmlns="http://www.w3.org/2000/svg" xmlns:xlink="http://www.w3.org/1999/xlink" width="1920" height="1080" viewBox="0 0 1920 1080"><defs><clipPath id="b"><rect width="1920" height="1080"/></clipPath></defs><g id="a" clip-path="url(#b)"><rect width="1920" height="1080" fill="#fff"/><g fill="#730a96" stroke="#707070" stroke-width="1" opacity="0.12"><rect width="1920" height="1080" stroke="none"/><rect x="0.5" y="0.5" width="1919" height="1079" fill="none"/></g><g opacity="0.2"><path d="M840.272,0c-39.018,78.036-78.209,155.9-98.063,241.188-19.854,85.115-20.545,177.481-62.326,252.755S555.059,627.226,469.772,646.735c-85.115,19.509-172.3.518-251.028,26.415S70.095,769.659,0,840.272V0Z" fill="#730a96"/></g><g transform="translate(12.118 -5)"><g transform="matrix(0.53, 0.848, -0.848, 0.53, 342.271, 625.116)" fill="rgba(255,255,255,0)" opacity="0.75"><path d="M 99.10817718505859 106.5000076293945 L 25.89184188842773 106.5000076293945 C 21.3806095123291 106.5000076293945 17.33722496032715 104.1695785522461 15.07580947875977 100.2660751342773 C 12.81439208984375 96.36259460449219 12.80399227142334 91.69572448730469 15.04799270629883 87.78221130371094 L 51.65614318847656 23.93757629394531 C 53.91172409057617 20.00384330749512 57.96549224853516 17.65535926818848 62.49999237060547 17.65535926818848 C 67.03449249267578 17.65535926818848 71.08827209472656 20.00384330749512 73.34384155273438 23.93757629394531 L 109.9520111083984 87.78221130371094 C 112.1960067749023 91.69572448730469 112.1855926513672 96.36260986328125 109.9241790771484 100.2660903930664 C 107.6627578735352 104.1695785522461 103.6193923950195 106.5000076293945 99.10817718505859 106.5000076293945 Z" stroke="none"/><path d="M 62.49999237060547 20.15534973144531 C 60.77353668212891 20.15534973144531 59.08071899414062 20.58918762207031 57.60452270507812 21.40997314453125 C 56.02915954589844 22.28588104248047 54.75749969482422 23.55469512939453 53.82492065429688 25.18113708496094 L 17.21675872802734 89.0257568359375 C 16.28882598876953 90.64405822753906 15.83618927001953 92.3743896484375 15.87146759033203 94.168701171875 C 15.90451812744141 95.85053253173828 16.37741088867188 97.52562713623047 17.239013671875 99.01286315917969 C 18.10063171386719 100.5000991821289 19.31853485107422 101.7435684204102 20.76110076904297 102.6088256835938 C 22.30014038085938 103.5319519042969 24.02635955810547 104.0000076293945 25.89183044433594 104.0000076293945 L 99.10816955566406 104.0000076293945 C 100.9736328125 104.0000076293945 102.6998443603516 103.5319519042969 104.238883972168 102.6088256835938 C 105.6814422607422 101.7435684204102 106.8993530273438 100.500114440918 107.7609558105469 99.01287841796875 C 108.6225738525391 97.52564239501953 109.0954666137695 95.85055541992188 109.1285171508789 94.16871643066406 C 109.1637725830078 92.37440490722656 108.7111587524414 90.64405822753906 107.7832260131836 89.0257568359375 L 71.17506408691406 25.18113708496094 C 70.24248504638672 23.55469512939453 68.9708251953125 22.28588104248047 67.39546203613281 21.40997314453125 C 65.91926574707031 20.58918762207031 64.22644805908203 20.15534973144531 62.49999237060547 20.15534973144531 M 62.5 15.15536499023438 C 67.56543731689453 15.15536499023438 72.63087463378906 17.66824340820312 75.51261138916016 22.69400787353516 L 112.1207733154297 86.53861999511719 C 117.8546676635742 96.53857421875 110.6353759765625 109.0000076293945 99.10816955566406 109.0000076293945 L 25.89183044433594 109.0000076293945 C 14.36463165283203 109.0000076293945 7.145301818847656 96.53857421875 12.87921142578125 86.53861999511719 L 49.48737335205078 22.69400787353516 C 52.36911773681641 17.66824340820312 57.43456268310547 15.15536499023438 62.5 15.15536499023438 Z" stroke="none" fill="#2fac66"/></g><g transform="translate(108 696)" fill="rgba(255,255,255,0)" stroke="#730a96" stroke-width="5" opacity="0.44"><circle cx="24" cy="24" r="24" stroke="none"/><circle cx="24" cy="24" r="21.5" fill="none"/></g><g transform="translate(756 138)" fill="rgba(255,255,255,0)" stroke="#730a96" stroke-width="5" opacity="0.4"><circle cx="15.5" cy="15.5" r="15.5" stroke="none"/><circle cx="15.5" cy="15.5" r="13" fill="none"/></g><g transform="translate(704.556 287.555) rotate(-19)" fill="rgba(255,255,255,0)" opacity="0.75"><path d="M 78.09422302246094 85.16547393798828 L 22.43959617614746 85.16547393798828 C 18.65015602111816 85.16547393798828 15.25372982025146 83.20790100097656 13.35412979125977 79.92897033691406 C 11.4545431137085 76.65004730224609 11.44580936431885 72.72987365722656 13.33076953887939 69.44251251220703 L 41.15807723999023 20.91168785095215 C 43.05275726318359 17.60736846923828 46.45792770385742 15.63463497161865 50.26690292358398 15.63463497161865 C 54.07587814331055 15.63463497161865 57.48104858398438 17.60736846923828 59.37572860717773 20.91168785095215 L 87.20304870605469 69.44251251220703 C 89.0880126953125 72.72987365722656 89.07927703857422 76.65004730224609 87.1796875 79.92897033691406 C 85.28009033203125 83.20790100097656 81.88365936279297 85.16547393798828 78.09422302246094 85.16547393798828 Z" stroke="none"/><path d="M 50.26690292358398 18.1346435546875 C 48.88373565673828 18.1346435546875 47.52863693237305 18.48157501220703 46.34811782836914 19.13796234130859 C 45.09037017822266 19.83727264404297 44.07386779785156 20.85243988037109 43.32683563232422 22.15524291992188 L 15.49951934814453 70.68607330322266 C 14.75625610351562 71.98234558105469 14.39365386962891 73.36598968505859 14.42180633544922 74.79857635498047 C 14.44823455810547 76.1435546875 14.82707214355469 77.48427581787109 15.517333984375 78.67575836181641 C 16.20760345458984 79.86724090576172 17.18223571777344 80.86277770996094 18.33586883544922 81.55472564697266 C 19.56465148925781 82.29176330566406 20.94535064697266 82.66547393798828 22.43958282470703 82.66547393798828 L 78.09420013427734 82.66547393798828 C 79.58845520019531 82.66547393798828 80.96915435791016 82.29176330566406 82.19793701171875 81.55472564697266 C 83.35157012939453 80.86277770996094 84.32620239257812 79.86724090576172 85.01647186279297 78.67575836181641 C 85.70673370361328 77.48427581787109 86.0855712890625 76.14357757568359 86.11199951171875 74.79859161376953 C 86.14015197753906 73.36598968505859 85.77754974365234 71.98234558105469 85.03428649902344 70.68607330322266 L 57.20697021484375 22.15524291992188 C 56.45993804931641 20.85243988037109 55.44343566894531 19.83727264404297 54.18568801879883 19.13796234130859 C 53.00515365600586 18.48159027099609 51.65007019042969 18.1346435546875 50.26690292358398 18.1346435546875 M 50.26690292358398 13.13463592529297 C 54.65694427490234 13.13463592529297 59.0469856262207 15.31246948242188 61.54450225830078 19.66812896728516 L 89.37181854248047 68.19895935058594 C 94.34120178222656 76.86557769775391 88.08447265625 87.66545867919922 78.09422302246094 87.66547393798828 L 22.43958282470703 87.66547393798828 C 12.44935607910156 87.66545867919922 6.192604064941406 76.86557769775391 11.1619873046875 68.19895935058594 L 38.98930358886719 19.66812896728516 C 41.48682022094727 15.31246948242188 45.87686157226562 13.13463592529297 50.26690292358398 13.13463592529297 Z" stroke="none" fill="#2fac66"/></g><g transform="matrix(0.682, 0.731, -0.731, 0.682, 765.623, 398.476)" fill="rgba(255,255,255,0)" opacity="0.5"><path d="M 46.6976203918457 51.76692962646484 L 15.53509998321533 51.76692962646484 C 13.18925952911377 51.76692962646484 11.08670997619629 50.55509948730469 9.910769462585449 48.52528762817383 C 8.734829902648926 46.49547958374023 8.729419708251953 44.06871032714844 9.896299362182617 42.0336799621582 L 25.47756004333496 14.85995864868164 C 26.65044975280762 12.81442832946777 28.75841903686523 11.59321880340576 31.11635971069336 11.59321880340576 C 33.47430038452148 11.59321880340576 35.58227157592773 12.81442832946777 36.75516128540039 14.85995864868164 L 52.33641815185547 42.0336799621582 C 53.50329971313477 44.06871032714844 53.49789047241211 46.49547958374023 52.32196044921875 48.52528762817383 C 51.14601898193359 50.55509948730469 49.0434684753418 51.76692962646484 46.6976203918457 51.76692962646484 Z" stroke="none"/><path d="M 31.11635971069336 14.09321975708008 C 30.41960716247559 14.09321975708008 28.68670272827148 14.28910446166992 27.64633560180664 16.103515625 L 12.06506729125977 43.27724456787109 C 11.030029296875 45.08233642578125 11.72649002075195 46.67227935791016 12.07397079467773 47.27206802368164 C 12.42145538330078 47.87186813354492 13.45429992675781 49.26692581176758 15.53509902954102 49.26692581176758 L 46.69761657714844 49.26692581176758 C 48.77841949462891 49.26692581176758 49.81126403808594 47.87186813354492 50.15874862670898 47.27206802368164 C 50.50622940063477 46.67227935791016 51.20269012451172 45.08233642578125 50.16765594482422 43.27722930908203 L 34.58638381958008 16.103515625 C 33.5460205078125 14.28910446166992 31.81311225891113 14.09321975708008 31.11635971069336 14.09321975708008 M 31.11635971069336 9.093215942382812 C 34.15561676025391 9.093215942382812 37.19487762451172 10.60094451904297 38.92392349243164 13.61639785766602 L 54.50519561767578 40.79011535644531 C 57.94553756713867 46.79006958007812 53.61394882202148 54.26692581176758 46.69761657714844 54.26692581176758 L 15.53509902954102 54.26692581176758 C 8.618782043457031 54.26692581176758 4.287181854248047 46.79006958007812 7.727535247802734 40.79011535644531 L 23.30879592895508 13.61639785766602 C 25.037841796875 10.60094451904297 28.07710266113281 9.093215942382812 31.11635971069336 9.093215942382812 Z" stroke="none" fill="#730a96"/></g></g></g></svg>