<svg width="32" height="32" viewBox="0 0 32 32" fill="none" xmlns="http://www.w3.org/2000/svg">
<path opacity="0.4" d="M15.9993 29.3334C23.3631 29.3334 29.3327 23.3639 29.3327 16.0001C29.3327 8.63628 23.3631 2.66675 15.9993 2.66675C8.63555 2.66675 2.66602 8.63628 2.66602 16.0001C2.66602 23.3639 8.63555 29.3334 15.9993 29.3334Z" fill="#FB5353"/>
<path d="M21.3327 15.0001H16.9993V10.6667C16.9993 10.1201 16.546 9.66675 15.9993 9.66675C15.4527 9.66675 14.9993 10.1201 14.9993 10.6667V15.0001H10.666C10.1193 15.0001 9.66602 15.4534 9.66602 16.0001C9.66602 16.5467 10.1193 17.0001 10.666 17.0001H14.9993V21.3334C14.9993 21.8801 15.4527 22.3334 15.9993 22.3334C16.546 22.3334 16.9993 21.8801 16.9993 21.3334V17.0001H21.3327C21.8793 17.0001 22.3327 16.5467 22.3327 16.0001C22.3327 15.4534 21.8793 15.0001 21.3327 15.0001Z" fill="#FB5353"/>
</svg>
