<svg width="42" height="42" viewBox="0 0 42 42" fill="none" xmlns="http://www.w3.org/2000/svg">
<path opacity="0.4" d="M28.3334 15.505C27.6509 15.505 27.1084 14.9625 27.1084 14.28V12.04C27.1084 10.325 26.3734 8.68001 25.1134 7.52501C23.8184 6.35251 22.1559 5.81001 20.4059 5.96751C17.4659 6.24751 14.8934 9.24001 14.8934 12.355V13.93C14.8934 14.6125 14.3509 15.155 13.6684 15.155C12.9859 15.155 12.4434 14.6125 12.4434 13.93V12.355C12.4434 7.98001 15.9784 3.93751 20.1609 3.53501C22.5934 3.30751 24.9384 4.07751 26.7409 5.72251C28.5259 7.33251 29.5409 9.64251 29.5409 12.04V14.28C29.5409 14.9625 28.9984 15.505 28.3334 15.505Z" fill="#0043A4"/>
<path d="M34.9296 15.68C33.4596 14.0525 31.0446 13.265 27.5096 13.265H14.4896C10.9546 13.265 8.53956 14.0525 7.06956 15.68C5.37206 17.57 5.42456 20.09 5.61706 21.84L6.84206 31.5875C7.20956 35 8.59205 38.5 16.1171 38.5H25.8821C33.4071 38.5 34.7896 35 35.1571 31.605L36.3821 21.8225C36.5746 20.09 36.6096 17.57 34.9296 15.68ZM14.7346 23.0125H14.7171C13.7546 23.0125 12.9671 22.225 12.9671 21.2625C12.9671 20.3 13.7546 19.5125 14.7171 19.5125C15.6971 19.5125 16.4846 20.3 16.4846 21.2625C16.4846 22.225 15.6971 23.0125 14.7346 23.0125ZM26.9846 23.0125H26.9671C26.0046 23.0125 25.2171 22.225 25.2171 21.2625C25.2171 20.3 26.0046 19.5125 26.9671 19.5125C27.9471 19.5125 28.7346 20.3 28.7346 21.2625C28.7346 22.225 27.9471 23.0125 26.9846 23.0125Z" fill="#0043A4"/>
</svg>
