<svg width="36" height="36" viewBox="0 0 36 36" fill="none" xmlns="http://www.w3.org/2000/svg">
<path opacity="0.4" d="M5.9853 21.9899L3.70531 19.71C2.77531 18.78 2.77531 17.25 3.70531 16.32L5.9853 14.0399C6.3753 13.6499 6.6903 12.8849 6.6903 12.3449V9.11999C6.6903 7.79999 7.77031 6.71993 9.09031 6.71993H12.3153C12.8553 6.71993 13.6203 6.40497 14.0103 6.01497L16.2903 3.73495C17.2203 2.80495 18.7503 2.80495 19.6803 3.73495L21.9603 6.01497C22.3503 6.40497 23.1153 6.71993 23.6553 6.71993H26.8803C28.2003 6.71993 29.2803 7.79999 29.2803 9.11999V12.3449C29.2803 12.8849 29.5953 13.6499 29.9853 14.0399L32.2653 16.32C33.1953 17.25 33.1953 18.78 32.2653 19.71L29.9853 21.9899C29.5953 22.3799 29.2803 23.1449 29.2803 23.6849V26.91C29.2803 28.23 28.2003 29.3099 26.8803 29.3099H23.6553C23.1153 29.3099 22.3503 29.625 21.9603 30.015L19.6803 32.295C18.7503 33.225 17.2203 33.225 16.2903 32.295L14.0103 30.015C13.6203 29.625 12.8553 29.3099 12.3153 29.3099H9.09031C7.77031 29.3099 6.6903 28.23 6.6903 26.91V23.6849C6.6903 23.1299 6.3753 22.3649 5.9853 21.9899Z" fill="#FB5353"/>
<path d="M22.4994 24.0001C21.6594 24.0001 20.9844 23.3251 20.9844 22.5001C20.9844 21.6751 21.6594 21.0001 22.4844 21.0001C23.3094 21.0001 23.9844 21.6751 23.9844 22.5001C23.9844 23.3251 23.3244 24.0001 22.4994 24.0001Z" fill="#FB5353"/>
<path d="M13.515 15.0001C12.675 15.0001 12 14.3251 12 13.5001C12 12.6751 12.675 12.0001 13.5 12.0001C14.325 12.0001 15 12.6751 15 13.5001C15 14.3251 14.34 15.0001 13.515 15.0001Z" fill="#FB5353"/>
<path d="M13.5002 23.6249C13.2152 23.6249 12.9302 23.5199 12.7052 23.2949C12.2702 22.8599 12.2702 22.1398 12.7052 21.7048L21.7052 12.7048C22.1402 12.2698 22.8602 12.2698 23.2952 12.7048C23.7302 13.1398 23.7302 13.8599 23.2952 14.2949L14.2952 23.2949C14.0702 23.5199 13.7852 23.6249 13.5002 23.6249Z" fill="#FB5353"/>
</svg>
